<?xml version="1.0" encoding="utf-8" standalone="no"?>
<!DOCTYPE svg PUBLIC "-//W3C//DTD SVG 1.1//EN"
  "http://www.w3.org/Graphics/SVG/1.1/DTD/svg11.dtd">
<!-- Created with matplotlib (http://matplotlib.org/) -->
<svg height="356pt" version="1.1" viewBox="0 0 510 356" width="510pt" xmlns="http://www.w3.org/2000/svg" xmlns:xlink="http://www.w3.org/1999/xlink">
 <defs>
  <style type="text/css">
*{stroke-linecap:butt;stroke-linejoin:round;stroke-miterlimit:100000;}
  </style>
 </defs>
 <g id="figure_1">
  <g id="patch_1">
   <path d="M 0 356.324756 
L 510.215326 356.324756 
L 510.215326 0 
L 0 0 
z
" style="fill:#ffffff;"/>
  </g>
  <g id="axes_1">
   <g id="patch_2">
    <path d="M 51.633991 318.527838 
L 498.033991 318.527838 
L 498.033991 11.627838 
L 51.633991 11.627838 
z
" style="fill:#eaeaf2;"/>
   </g>
   <g id="matplotlib.axis_1">
    <g id="xtick_1">
     <g id="line2d_1">
      <path clip-path="url(#p58384c2ec2)" d="M 51.633991 318.527838 
L 51.633991 11.627838 
" style="fill:none;stroke:#ffffff;stroke-linecap:round;"/>
     </g>
     <g id="line2d_2">
      <defs>
       <path d="M 0 0 
L 0 0 
" id="m4b287ec309" style="stroke:#262626;"/>
      </defs>
      <g>
       <use style="fill:#262626;stroke:#262626;" x="51.6339908206" xlink:href="#m4b287ec309" y="318.527838355"/>
      </g>
     </g>
     <g id="line2d_3">
      <g>
       <use style="fill:#262626;stroke:#262626;" x="51.6339908206" xlink:href="#m4b287ec309" y="11.6278383552"/>
      </g>
     </g>
     <g id="text_1">
      <!-- $-2$ -->
      <defs>
       <path d="M 41.703125 15.453125 
L 39.90625 15.453125 
C 38.90625 8.375 38.09375 7.171875 37.703125 6.5625 
C 37.203125 5.765625 30 5.765625 28.59375 5.765625 
L 9.40625 5.765625 
C 13 9.671875 20 16.75 28.5 24.953125 
C 34.59375 30.734375 41.703125 37.53125 41.703125 47.421875 
C 41.703125 59.21875 32.296875 66 21.796875 66 
C 10.796875 66 4.09375 56.3125 4.09375 47.34375 
C 4.09375 43.4375 7 42.9375 8.203125 42.9375 
C 9.203125 42.9375 12.203125 43.546875 12.203125 47.03125 
C 12.203125 50.109375 9.59375 51 8.203125 51 
C 7.59375 51 7 50.90625 6.59375 50.703125 
C 8.5 59.21875 14.296875 63.40625 20.40625 63.40625 
C 29.09375 63.40625 34.796875 56.515625 34.796875 47.421875 
C 34.796875 38.734375 29.703125 31.25 24 24.75 
L 4.09375 2.28125 
L 4.09375 0 
L 39.296875 0 
z
" id="CMR17-50"/>
       <path d="M 65.90625 23 
C 67.59375 23 69.40625 23 69.40625 25 
C 69.40625 27 67.59375 27 65.90625 27 
L 11.796875 27 
C 10.09375 27 8.296875 27 8.296875 25 
C 8.296875 23 10.09375 23 11.796875 23 
z
" id="CMSY10-0"/>
      </defs>
      <g style="fill:#262626;" transform="translate(45.2689513324 332.446336735)scale(0.1 -0.1)">
       <use transform="scale(0.9962640099626402)" xlink:href="#CMSY10-0"/>
       <use transform="translate(77.4874676506071 0.0)scale(0.9962640099626402)" xlink:href="#CMR17-50"/>
      </g>
     </g>
    </g>
    <g id="xtick_2">
     <g id="line2d_4">
      <path clip-path="url(#p58384c2ec2)" d="M 126.033991 318.527838 
L 126.033991 11.627838 
" style="fill:none;stroke:#ffffff;stroke-linecap:round;"/>
     </g>
     <g id="line2d_5">
      <g>
       <use style="fill:#262626;stroke:#262626;" x="126.033990821" xlink:href="#m4b287ec309" y="318.527838355"/>
      </g>
     </g>
     <g id="line2d_6">
      <g>
       <use style="fill:#262626;stroke:#262626;" x="126.033990821" xlink:href="#m4b287ec309" y="11.6278383552"/>
      </g>
     </g>
     <g id="text_2">
      <!-- $0$ -->
      <defs>
       <path d="M 42 31.640625 
C 42 37.75 41.90625 48.125 37.703125 56.109375 
C 34 63.109375 28.09375 65.59375 22.90625 65.59375 
C 18.09375 65.59375 12 63.40625 8.203125 56.203125 
C 4.203125 48.71875 3.796875 39.4375 3.796875 31.640625 
C 3.796875 25.953125 3.90625 17.28125 7 9.671875 
C 11.296875 -0.609375 19 -2 22.90625 -2 
C 27.5 -2 34.5 -0.109375 38.59375 9.375 
C 41.59375 16.28125 42 24.359375 42 31.640625 
M 22.90625 -0.40625 
C 16.5 -0.40625 12.703125 5.078125 11.296875 12.6875 
C 10.203125 18.5625 10.203125 27.15625 10.203125 32.75 
C 10.203125 40.4375 10.203125 46.828125 11.5 52.921875 
C 13.40625 61.390625 19 64 22.90625 64 
C 27 64 32.296875 61.296875 34.203125 53.125 
C 35.5 47.4375 35.59375 40.734375 35.59375 32.75 
C 35.59375 26.25 35.59375 18.265625 34.40625 12.375 
C 32.296875 1.484375 26.40625 -0.40625 22.90625 -0.40625 
" id="CMR17-48"/>
      </defs>
      <g style="fill:#262626;" transform="translate(123.543323195 332.446336735)scale(0.1 -0.1)">
       <use transform="scale(0.9962640099626402)" xlink:href="#CMR17-48"/>
      </g>
     </g>
    </g>
    <g id="xtick_3">
     <g id="line2d_7">
      <path clip-path="url(#p58384c2ec2)" d="M 200.433991 318.527838 
L 200.433991 11.627838 
" style="fill:none;stroke:#ffffff;stroke-linecap:round;"/>
     </g>
     <g id="line2d_8">
      <g>
       <use style="fill:#262626;stroke:#262626;" x="200.433990821" xlink:href="#m4b287ec309" y="318.527838355"/>
      </g>
     </g>
     <g id="line2d_9">
      <g>
       <use style="fill:#262626;stroke:#262626;" x="200.433990821" xlink:href="#m4b287ec309" y="11.6278383552"/>
      </g>
     </g>
     <g id="text_3">
      <!-- $2$ -->
      <g style="fill:#262626;" transform="translate(197.943323195 332.446336735)scale(0.1 -0.1)">
       <use transform="scale(0.9962640099626402)" xlink:href="#CMR17-50"/>
      </g>
     </g>
    </g>
    <g id="xtick_4">
     <g id="line2d_10">
      <path clip-path="url(#p58384c2ec2)" d="M 274.833991 318.527838 
L 274.833991 11.627838 
" style="fill:none;stroke:#ffffff;stroke-linecap:round;"/>
     </g>
     <g id="line2d_11">
      <g>
       <use style="fill:#262626;stroke:#262626;" x="274.833990821" xlink:href="#m4b287ec309" y="318.527838355"/>
      </g>
     </g>
     <g id="line2d_12">
      <g>
       <use style="fill:#262626;stroke:#262626;" x="274.833990821" xlink:href="#m4b287ec309" y="11.6278383552"/>
      </g>
     </g>
     <g id="text_4">
      <!-- $4$ -->
      <defs>
       <path d="M 33.59375 64.328125 
C 33.59375 66.40625 33.5 66.5 31.703125 66.5 
L 2 19.59375 
L 2 17 
L 27.796875 17 
L 27.796875 7.140625 
C 27.796875 3.5 27.59375 2.5 20.59375 2.5 
L 18.703125 2.5 
L 18.703125 0 
C 21.90625 0 27.296875 0 30.703125 0 
C 34.09375 0 39.5 0 42.703125 0 
L 42.703125 2.5 
L 40.796875 2.5 
C 33.796875 2.5 33.59375 3.5 33.59375 7.140625 
L 33.59375 17 
L 43.796875 17 
L 43.796875 19.59375 
L 33.59375 19.59375 
z
M 28.09375 57.765625 
L 28.09375 19.59375 
L 4 19.59375 
z
" id="CMR17-52"/>
      </defs>
      <g style="fill:#262626;" transform="translate(272.343323195 332.446336735)scale(0.1 -0.1)">
       <use transform="scale(0.9962640099626402)" xlink:href="#CMR17-52"/>
      </g>
     </g>
    </g>
    <g id="xtick_5">
     <g id="line2d_13">
      <path clip-path="url(#p58384c2ec2)" d="M 349.233991 318.527838 
L 349.233991 11.627838 
" style="fill:none;stroke:#ffffff;stroke-linecap:round;"/>
     </g>
     <g id="line2d_14">
      <g>
       <use style="fill:#262626;stroke:#262626;" x="349.233990821" xlink:href="#m4b287ec309" y="318.527838355"/>
      </g>
     </g>
     <g id="line2d_15">
      <g>
       <use style="fill:#262626;stroke:#262626;" x="349.233990821" xlink:href="#m4b287ec309" y="11.6278383552"/>
      </g>
     </g>
     <g id="text_5">
      <!-- $6$ -->
      <defs>
       <path d="M 10.59375 34 
C 10.59375 57.65625 21.796875 63 28.296875 63 
C 30.40625 63 35.5 62.640625 37.5 59 
C 35.90625 59 32.90625 59 32.90625 55.515625 
C 32.90625 52.828125 35.09375 51.921875 36.5 51.921875 
C 37.40625 51.921875 40.09375 52.3125 40.09375 55.625 
C 40.09375 61.78125 35.09375 65.296875 28.203125 65.296875 
C 16.296875 65.296875 3.796875 52.96875 3.796875 31 
C 3.796875 3.953125 15.09375 -2 23.09375 -2 
C 32.796875 -2 42 6.671875 42 20.046875 
C 42 32.515625 33.90625 41.59375 23.703125 41.59375 
C 17.59375 41.59375 13.09375 37.609375 10.59375 30.625 
z
M 23.09375 0.390625 
C 10.796875 0.390625 10.796875 18.75 10.796875 22.4375 
C 10.796875 29.625 14.203125 40 23.5 40 
C 25.203125 40 30.09375 40 33.40625 33.125 
C 35.203125 29.21875 35.203125 25.140625 35.203125 20.140625 
C 35.203125 14.75 35.203125 10.78125 33.09375 6.78125 
C 30.90625 2.671875 27.703125 0.390625 23.09375 0.390625 
" id="CMR17-54"/>
      </defs>
      <g style="fill:#262626;" transform="translate(346.743323195 332.446336735)scale(0.1 -0.1)">
       <use transform="scale(0.9962640099626402)" xlink:href="#CMR17-54"/>
      </g>
     </g>
    </g>
    <g id="xtick_6">
     <g id="line2d_16">
      <path clip-path="url(#p58384c2ec2)" d="M 423.633991 318.527838 
L 423.633991 11.627838 
" style="fill:none;stroke:#ffffff;stroke-linecap:round;"/>
     </g>
     <g id="line2d_17">
      <g>
       <use style="fill:#262626;stroke:#262626;" x="423.633990821" xlink:href="#m4b287ec309" y="318.527838355"/>
      </g>
     </g>
     <g id="line2d_18">
      <g>
       <use style="fill:#262626;stroke:#262626;" x="423.633990821" xlink:href="#m4b287ec309" y="11.6278383552"/>
      </g>
     </g>
     <g id="text_6">
      <!-- $8$ -->
      <defs>
       <path d="M 27.203125 35.375 
C 33.5 38.5625 39.90625 43.328125 39.90625 50.984375 
C 39.90625 60.03125 31.09375 65.296875 23 65.296875 
C 13.90625 65.296875 5.90625 58.734375 5.90625 49.6875 
C 5.90625 47.203125 6.5 42.921875 10.40625 39.140625 
C 11.40625 38.15625 15.59375 35.171875 18.296875 33.28125 
C 13.796875 30.984375 3.296875 25.53125 3.296875 14.59375 
C 3.296875 4.359375 13.09375 -2 22.796875 -2 
C 33.5 -2 42.5 5.65625 42.5 15.796875 
C 42.5 24.84375 36.40625 29.03125 32.40625 31.703125 
z
M 14.09375 44.125 
C 13.296875 44.625 9.296875 47.703125 9.296875 52.375 
C 9.296875 58.4375 15.59375 63 22.796875 63 
C 30.703125 63 36.5 57.453125 36.5 50.984375 
C 36.5 41.734375 26.09375 36.46875 25.59375 36.46875 
C 25.5 36.46875 25.40625 36.46875 24.59375 37.078125 
z
M 32.5 23.734375 
C 34 22.640625 38.796875 19.375 38.796875 13.296875 
C 38.796875 5.953125 31.40625 0.390625 23 0.390625 
C 13.90625 0.390625 7 6.84375 7 14.6875 
C 7 22.546875 13.09375 29.09375 20 32.1875 
z
" id="CMR17-56"/>
      </defs>
      <g style="fill:#262626;" transform="translate(421.143323195 332.446336735)scale(0.1 -0.1)">
       <use transform="scale(0.9962640099626402)" xlink:href="#CMR17-56"/>
      </g>
     </g>
    </g>
    <g id="xtick_7">
     <g id="line2d_19">
      <path clip-path="url(#p58384c2ec2)" d="M 498.033991 318.527838 
L 498.033991 11.627838 
" style="fill:none;stroke:#ffffff;stroke-linecap:round;"/>
     </g>
     <g id="line2d_20">
      <g>
       <use style="fill:#262626;stroke:#262626;" x="498.033990821" xlink:href="#m4b287ec309" y="318.527838355"/>
      </g>
     </g>
     <g id="line2d_21">
      <g>
       <use style="fill:#262626;stroke:#262626;" x="498.033990821" xlink:href="#m4b287ec309" y="11.6278383552"/>
      </g>
     </g>
     <g id="text_7">
      <!-- $10$ -->
      <defs>
       <path d="M 26.59375 63.3125 
C 26.59375 65.40625 26.5 65.5 25.09375 65.5 
C 21.203125 61.1875 15.296875 59.796875 9.703125 59.796875 
C 9.40625 59.796875 8.90625 59.796875 8.796875 59.609375 
C 8.703125 59.390625 8.703125 59.171875 8.703125 57 
C 11.796875 57 17 57.59375 21 59.984375 
L 21 7.203125 
C 21 3.6875 20.796875 2.5 12.203125 2.5 
L 9.203125 2.5 
L 9.203125 0 
C 14 0 19 0 23.796875 0 
C 28.59375 0 33.59375 0 38.40625 0 
L 38.40625 2.5 
L 35.40625 2.5 
C 26.796875 2.5 26.59375 3.59375 26.59375 7.15625 
z
" id="CMR17-49"/>
      </defs>
      <g style="fill:#262626;" transform="translate(493.052655569 332.446336735)scale(0.1 -0.1)">
       <use transform="scale(0.9962640099626402)" xlink:href="#CMR17-49"/>
       <use transform="translate(45.69047711706103 0.0)scale(0.9962640099626402)" xlink:href="#CMR17-48"/>
      </g>
     </g>
    </g>
    <g id="text_8">
     <!-- Messung -->
     <defs>
      <path d="M 49.90625 37.125 
L 45.09375 23.09375 
C 44.296875 20.5 41.59375 12.4375 41 9.25 
L 40.90625 9.25 
C 40.59375 11.25 40 13.34375 38.40625 18.421875 
C 37.5 21.40625 36.5 24.484375 35.5 27.28125 
L 20.703125 69.078125 
L 9 69.078125 
L 9 0 
L 16.796875 0 
L 16.796875 61.015625 
L 16.90625 61.015625 
C 16.90625 60.921875 17.796875 56.53125 23.90625 39.125 
L 37.09375 1.59375 
L 44.5 1.59375 
L 56.40625 34.828125 
C 57.203125 37.109375 59.703125 44.359375 60.796875 47.828125 
C 61.796875 50.796875 64.296875 58.140625 64.90625 61.015625 
L 65 61.015625 
L 65 0 
L 72.90625 0 
L 72.90625 69.078125 
L 61.296875 69.078125 
z
" id="CMSS17-77"/>
      <path d="M 39.09375 21.515625 
C 39.09375 24.84375 38.90625 31.296875 35.703125 36.640625 
C 32.203125 42.390625 26.5 44 22.203125 44 
C 11.796875 44 3 34.1875 3 21.484375 
C 3 9.09375 12.09375 -1 23.59375 -1 
C 28.09375 -1 33.59375 0.296875 38.59375 3.875 
C 38.59375 4.28125 38.40625 6.46875 38.296875 6.5625 
C 38.296875 6.765625 38 9.828125 38 10.234375 
C 33.203125 6.359375 27.703125 5.078125 23.703125 5.078125 
C 17.296875 5.078125 10.40625 10.421875 10.09375 21.515625 
z
M 10.90625 27 
C 12.203125 32.5625 16.59375 37.828125 22.203125 37.828125 
C 23.703125 37.828125 30.703125 37.828125 32.5 27 
z
" id="CMSS17-101"/>
      <path d="M 40.90625 29.328125 
C 40.90625 35.671875 39.40625 44 28.09375 44 
C 21.703125 44 17.5 40.71875 14.703125 37.328125 
L 14.703125 43.09375 
L 7.40625 43.09375 
L 7.40625 0 
L 15 0 
L 15 24.359375 
C 15 30.6875 17.40625 37.9375 24.203125 37.9375 
C 33 37.9375 33.296875 32 33.296875 28.578125 
L 33.296875 0 
L 40.90625 0 
z
" id="CMSS17-110"/>
      <path d="M 44.5 43.671875 
C 38.796875 43.671875 33.90625 42.578125 29.90625 40.6875 
C 26.59375 43.1875 23.203125 43.671875 20.90625 43.671875 
C 12.203125 43.671875 5.59375 36.625 5.59375 28.375 
C 5.59375 23.0625 8.59375 19.046875 8.796875 18.859375 
C 7 16.328125 6 13.609375 6 10.578125 
C 6 7.046875 7.40625 4.53125 8.5 3.125 
C 3.296875 -0.046875 2.59375 -4.90625 2.59375 -6.796875 
C 2.59375 -14.03125 11.703125 -20 23.40625 -20 
C 35.203125 -20 44.296875 -14.03125 44.296875 -6.6875 
C 44.296875 7 29 7 24.796875 7 
L 16.703125 7 
C 15.203125 7 11.203125 7 11.203125 12.265625 
C 11.203125 14.34375 12.09375 15.6875 12.203125 15.78125 
C 13.703125 14.6875 16.796875 13 20.90625 13 
C 29.203125 13 36.09375 19.890625 36.09375 28.359375 
C 36.09375 33.0625 33.90625 36.515625 33 37.703125 
L 33.296875 37.703125 
C 33.59375 37.703125 37.796875 38 39.296875 38 
C 42.5 38 42.796875 37.890625 45.59375 37.609375 
z
M 20.90625 18.46875 
C 17.5 18.46875 12.703125 20.53125 12.703125 28.390625 
C 12.703125 36.921875 18.203125 38.296875 20.796875 38.296875 
C 24.203125 38.296875 29 36.234375 29 28.390625 
C 29 19.84375 23.5 18.46875 20.90625 18.46875 
M 24.703125 -0.15625 
C 27.09375 -0.15625 37.203125 -0.15625 37.203125 -6.90625 
C 37.203125 -11.15625 31 -14.515625 23.5 -14.515625 
C 15.90625 -14.515625 9.703125 -11.25 9.703125 -6.796875 
C 9.703125 -6.296875 9.703125 -0.15625 16.59375 -0.15625 
z
" id="CMSS17-103"/>
      <path d="M 40.90625 42.796875 
L 33.296875 42.796875 
L 33.296875 15.1875 
C 33.296875 7.78125 27.90625 4.78125 22.203125 4.78125 
C 15.59375 4.78125 15 6.984375 15 11.078125 
L 15 42.796875 
L 7.40625 42.796875 
L 7.40625 10.59375 
C 7.40625 2.796875 10.09375 -1 17 -1 
C 20.40625 -1 28.09375 -0.203125 33.5 4.78125 
L 33.5 0 
L 40.90625 0 
z
" id="CMSS17-117"/>
      <path d="M 32.203125 40.984375 
C 26.296875 43.859375 21.703125 43.859375 18.703125 43.859375 
C 11.59375 43.859375 3.09375 41.375 3.09375 31.296875 
C 3.09375 21.234375 14.09375 19.03125 17.09375 18.421875 
C 21.703125 17.53125 26.796875 16.53125 26.796875 11.5625 
C 26.796875 5.265625 19.59375 5.265625 18.296875 5.265625 
C 14.296875 5.265625 8.796875 6.359375 3.796875 9.96875 
L 2.59375 3.28125 
C 8.296875 0 13.796875 -1 18.40625 -1 
C 30.703125 -1 33.796875 6.5 33.796875 12.203125 
C 33.796875 17.09375 31 20.390625 29.09375 21.890625 
C 25.796875 24.5 24.59375 24.796875 16.40625 26.5 
C 15 26.703125 10.09375 27.796875 10.09375 32.28125 
C 10.09375 38 16.40625 38 17.796875 38 
C 24.296875 38 28.296875 35.984375 31 34.5 
z
" id="CMSS17-115"/>
     </defs>
     <g style="fill:#262626;" transform="translate(255.001357884 346.993861764)scale(0.11 -0.11)">
      <use transform="scale(0.9962640099626402)" xlink:href="#CMSS17-77"/>
      <use transform="translate(81.67602995115972 0.0)scale(0.9962640099626402)" xlink:href="#CMSS17-101"/>
      <use transform="translate(123.31485201976963 0.0)scale(0.9962640099626402)" xlink:href="#CMSS17-115"/>
      <use transform="translate(159.228394010741 0.0)scale(0.9962640099626402)" xlink:href="#CMSS17-115"/>
      <use transform="translate(195.14193600171234 0.0)scale(0.9962640099626402)" xlink:href="#CMSS17-117"/>
      <use transform="translate(243.34687913488483 0.0)scale(0.9962640099626402)" xlink:href="#CMSS17-110"/>
      <use transform="translate(291.5518222680573 0.0)scale(0.9962640099626402)" xlink:href="#CMSS17-103"/>
     </g>
    </g>
   </g>
   <g id="matplotlib.axis_2">
    <g id="ytick_1">
     <g id="line2d_22">
      <path clip-path="url(#p58384c2ec2)" d="M 51.633991 318.527838 
L 498.033991 318.527838 
" style="fill:none;stroke:#ffffff;stroke-linecap:round;"/>
     </g>
     <g id="line2d_23">
      <g>
       <use style="fill:#262626;stroke:#262626;" x="51.6339908206" xlink:href="#m4b287ec309" y="318.527838355"/>
      </g>
     </g>
     <g id="line2d_24">
      <g>
       <use style="fill:#262626;stroke:#262626;" x="498.033990821" xlink:href="#m4b287ec309" y="318.527838355"/>
      </g>
     </g>
     <g id="text_9">
      <!-- $0.965$ -->
      <defs>
       <path d="M 11.40625 57.6875 
C 12.40625 57.28125 16.5 56 20.703125 56 
C 30 56 35.09375 61.015625 38 63.921875 
C 38 64.734375 38 65.25 37.40625 65.25 
C 37.296875 65.25 37.09375 65.25 36.296875 64.828125 
C 32.796875 63.3125 28.703125 62.078125 23.703125 62.078125 
C 20.703125 62.078125 16.203125 62.5 11.296875 64.734375 
C 10.203125 65.25 10 65.25 9.90625 65.25 
C 9.40625 65.25 9.296875 65.140625 9.296875 63.15625 
L 9.296875 34.28125 
C 9.296875 32.5 9.296875 32 10.296875 32 
C 10.796875 32 11 32.203125 11.5 32.90625 
C 14.703125 37.484375 19.09375 39.40625 24.09375 39.40625 
C 27.59375 39.40625 35.09375 37.21875 35.09375 20.140625 
C 35.09375 16.953125 35.09375 11.171875 32.09375 6.578125 
C 29.59375 2.484375 25.703125 0.390625 21.40625 0.390625 
C 14.796875 0.390625 8.09375 5 6.296875 12.71875 
C 6.703125 12.609375 7.5 12.421875 7.90625 12.421875 
C 9.203125 12.421875 11.703125 13.125 11.703125 16.21875 
C 11.703125 18.90625 9.796875 20 7.90625 20 
C 5.59375 20 4.09375 18.59375 4.09375 15.796875 
C 4.09375 7.09375 11 -2 21.59375 -2 
C 31.90625 -2 41.703125 6.875 41.703125 19.75 
C 41.703125 31.71875 33.90625 41 24.203125 41 
C 19.09375 41 14.796875 39.09375 11.40625 35.453125 
z
" id="CMR17-53"/>
       <path d="M 18.40625 4.796875 
C 18.40625 7.6875 16 9.671875 13.59375 9.671875 
C 10.703125 9.671875 8.703125 7.28125 8.703125 4.890625 
C 8.703125 2 11.09375 0 13.5 0 
C 16.40625 0 18.40625 2.390625 18.40625 4.796875 
" id="CMMI12-58"/>
       <path d="M 35.203125 29.125 
C 35.203125 7.25 26.09375 0.484375 18.59375 0.484375 
C 16.296875 0.484375 10.703125 0.484375 8.40625 4.59375 
C 11 4.1875 12.90625 5.578125 12.90625 8.09375 
C 12.90625 10.8125 10.703125 11.703125 9.296875 11.703125 
C 8.40625 11.703125 5.703125 11.296875 5.703125 7.90625 
C 5.703125 1.109375 11.59375 -2 18.796875 -2 
C 30.296875 -2 42 10.53125 42 32.390625 
C 42 59.640625 30.796875 65.296875 23.203125 65.296875 
C 13.296875 65.296875 3.796875 56.6875 3.796875 43.40625 
C 3.796875 31.109375 11.90625 22 22.09375 22 
C 30.5 22 34.203125 29.734375 35.203125 33 
z
M 22.296875 23.59375 
C 19.59375 23.59375 15.796875 24.09375 12.703125 30.03125 
C 10.59375 33.890625 10.59375 38.453125 10.59375 43.296875 
C 10.59375 49.15625 10.59375 53.203125 13.40625 57.5625 
C 14.796875 59.640625 17.40625 63 23.203125 63 
C 35 63 35 45.078125 35 41.125 
C 35 34.09375 31.796875 23.59375 22.296875 23.59375 
" id="CMR17-57"/>
      </defs>
      <g style="fill:#262626;" transform="translate(21.9412413411 321.01849838)scale(0.1 -0.1)">
       <use transform="scale(0.9962640099626402)" xlink:href="#CMR17-48"/>
       <use transform="translate(45.69047711706103 0.0)scale(0.9962640099626402)" xlink:href="#CMMI12-58"/>
       <use transform="translate(72.78765420688046 0.0)scale(0.9962640099626402)" xlink:href="#CMR17-57"/>
       <use transform="translate(118.47813132394148 0.0)scale(0.9962640099626402)" xlink:href="#CMR17-54"/>
       <use transform="translate(164.1686084410025 0.0)scale(0.9962640099626402)" xlink:href="#CMR17-53"/>
      </g>
     </g>
    </g>
    <g id="ytick_2">
     <g id="line2d_25">
      <path clip-path="url(#p58384c2ec2)" d="M 51.633991 274.684981 
L 498.033991 274.684981 
" style="fill:none;stroke:#ffffff;stroke-linecap:round;"/>
     </g>
     <g id="line2d_26">
      <g>
       <use style="fill:#262626;stroke:#262626;" x="51.6339908206" xlink:href="#m4b287ec309" y="274.684981212"/>
      </g>
     </g>
     <g id="line2d_27">
      <g>
       <use style="fill:#262626;stroke:#262626;" x="498.033990821" xlink:href="#m4b287ec309" y="274.684981212"/>
      </g>
     </g>
     <g id="text_10">
      <!-- $0.970$ -->
      <defs>
       <path d="M 45.09375 61.578125 
L 45.09375 63.765625 
L 21.59375 63.765625 
C 9.90625 63.765625 9.703125 65.078125 9.296875 67 
L 7.5 67 
L 4.59375 48.34375 
L 6.40625 48.34375 
C 6.703125 50.234375 7.40625 55.3125 8.59375 57.203125 
C 9.203125 58 16.59375 58 18.296875 58 
L 40.296875 58 
L 29.203125 41.578125 
C 21.796875 30.53125 16.703125 15.609375 16.703125 2.578125 
C 16.703125 1.390625 16.703125 -2 20.296875 -2 
C 23.90625 -2 23.90625 1.390625 23.90625 2.671875 
L 23.90625 7.265625 
C 23.90625 23.5625 26.703125 34.3125 31.296875 41.1875 
z
" id="CMR17-55"/>
      </defs>
      <g style="fill:#262626;" transform="translate(21.9412413411 277.175641237)scale(0.1 -0.1)">
       <use transform="scale(0.9962640099626402)" xlink:href="#CMR17-48"/>
       <use transform="translate(45.69047711706103 0.0)scale(0.9962640099626402)" xlink:href="#CMMI12-58"/>
       <use transform="translate(72.78765420688046 0.0)scale(0.9962640099626402)" xlink:href="#CMR17-57"/>
       <use transform="translate(118.47813132394148 0.0)scale(0.9962640099626402)" xlink:href="#CMR17-55"/>
       <use transform="translate(164.1686084410025 0.0)scale(0.9962640099626402)" xlink:href="#CMR17-48"/>
      </g>
     </g>
    </g>
    <g id="ytick_3">
     <g id="line2d_28">
      <path clip-path="url(#p58384c2ec2)" d="M 51.633991 230.842124 
L 498.033991 230.842124 
" style="fill:none;stroke:#ffffff;stroke-linecap:round;"/>
     </g>
     <g id="line2d_29">
      <g>
       <use style="fill:#262626;stroke:#262626;" x="51.6339908206" xlink:href="#m4b287ec309" y="230.842124069"/>
      </g>
     </g>
     <g id="line2d_30">
      <g>
       <use style="fill:#262626;stroke:#262626;" x="498.033990821" xlink:href="#m4b287ec309" y="230.842124069"/>
      </g>
     </g>
     <g id="text_11">
      <!-- $0.975$ -->
      <g style="fill:#262626;" transform="translate(21.9412413411 233.332784094)scale(0.1 -0.1)">
       <use transform="scale(0.9962640099626402)" xlink:href="#CMR17-48"/>
       <use transform="translate(45.69047711706103 0.0)scale(0.9962640099626402)" xlink:href="#CMMI12-58"/>
       <use transform="translate(72.78765420688046 0.0)scale(0.9962640099626402)" xlink:href="#CMR17-57"/>
       <use transform="translate(118.47813132394148 0.0)scale(0.9962640099626402)" xlink:href="#CMR17-55"/>
       <use transform="translate(164.1686084410025 0.0)scale(0.9962640099626402)" xlink:href="#CMR17-53"/>
      </g>
     </g>
    </g>
    <g id="ytick_4">
     <g id="line2d_31">
      <path clip-path="url(#p58384c2ec2)" d="M 51.633991 186.999267 
L 498.033991 186.999267 
" style="fill:none;stroke:#ffffff;stroke-linecap:round;"/>
     </g>
     <g id="line2d_32">
      <g>
       <use style="fill:#262626;stroke:#262626;" x="51.6339908206" xlink:href="#m4b287ec309" y="186.999266927"/>
      </g>
     </g>
     <g id="line2d_33">
      <g>
       <use style="fill:#262626;stroke:#262626;" x="498.033990821" xlink:href="#m4b287ec309" y="186.999266927"/>
      </g>
     </g>
     <g id="text_12">
      <!-- $0.980$ -->
      <g style="fill:#262626;" transform="translate(21.9412413411 189.489926952)scale(0.1 -0.1)">
       <use transform="scale(0.9962640099626402)" xlink:href="#CMR17-48"/>
       <use transform="translate(45.69047711706103 0.0)scale(0.9962640099626402)" xlink:href="#CMMI12-58"/>
       <use transform="translate(72.78765420688046 0.0)scale(0.9962640099626402)" xlink:href="#CMR17-57"/>
       <use transform="translate(118.47813132394148 0.0)scale(0.9962640099626402)" xlink:href="#CMR17-56"/>
       <use transform="translate(164.1686084410025 0.0)scale(0.9962640099626402)" xlink:href="#CMR17-48"/>
      </g>
     </g>
    </g>
    <g id="ytick_5">
     <g id="line2d_34">
      <path clip-path="url(#p58384c2ec2)" d="M 51.633991 143.15641 
L 498.033991 143.15641 
" style="fill:none;stroke:#ffffff;stroke-linecap:round;"/>
     </g>
     <g id="line2d_35">
      <g>
       <use style="fill:#262626;stroke:#262626;" x="51.6339908206" xlink:href="#m4b287ec309" y="143.156409784"/>
      </g>
     </g>
     <g id="line2d_36">
      <g>
       <use style="fill:#262626;stroke:#262626;" x="498.033990821" xlink:href="#m4b287ec309" y="143.156409784"/>
      </g>
     </g>
     <g id="text_13">
      <!-- $0.985$ -->
      <g style="fill:#262626;" transform="translate(21.9412413411 145.647069809)scale(0.1 -0.1)">
       <use transform="scale(0.9962640099626402)" xlink:href="#CMR17-48"/>
       <use transform="translate(45.69047711706103 0.0)scale(0.9962640099626402)" xlink:href="#CMMI12-58"/>
       <use transform="translate(72.78765420688046 0.0)scale(0.9962640099626402)" xlink:href="#CMR17-57"/>
       <use transform="translate(118.47813132394148 0.0)scale(0.9962640099626402)" xlink:href="#CMR17-56"/>
       <use transform="translate(164.1686084410025 0.0)scale(0.9962640099626402)" xlink:href="#CMR17-53"/>
      </g>
     </g>
    </g>
    <g id="ytick_6">
     <g id="line2d_37">
      <path clip-path="url(#p58384c2ec2)" d="M 51.633991 99.313553 
L 498.033991 99.313553 
" style="fill:none;stroke:#ffffff;stroke-linecap:round;"/>
     </g>
     <g id="line2d_38">
      <g>
       <use style="fill:#262626;stroke:#262626;" x="51.6339908206" xlink:href="#m4b287ec309" y="99.3135526409"/>
      </g>
     </g>
     <g id="line2d_39">
      <g>
       <use style="fill:#262626;stroke:#262626;" x="498.033990821" xlink:href="#m4b287ec309" y="99.3135526409"/>
      </g>
     </g>
     <g id="text_14">
      <!-- $0.990$ -->
      <g style="fill:#262626;" transform="translate(21.9412413411 101.804212666)scale(0.1 -0.1)">
       <use transform="scale(0.9962640099626402)" xlink:href="#CMR17-48"/>
       <use transform="translate(45.69047711706103 0.0)scale(0.9962640099626402)" xlink:href="#CMMI12-58"/>
       <use transform="translate(72.78765420688046 0.0)scale(0.9962640099626402)" xlink:href="#CMR17-57"/>
       <use transform="translate(118.47813132394148 0.0)scale(0.9962640099626402)" xlink:href="#CMR17-57"/>
       <use transform="translate(164.1686084410025 0.0)scale(0.9962640099626402)" xlink:href="#CMR17-48"/>
      </g>
     </g>
    </g>
    <g id="ytick_7">
     <g id="line2d_40">
      <path clip-path="url(#p58384c2ec2)" d="M 51.633991 55.470695 
L 498.033991 55.470695 
" style="fill:none;stroke:#ffffff;stroke-linecap:round;"/>
     </g>
     <g id="line2d_41">
      <g>
       <use style="fill:#262626;stroke:#262626;" x="51.6339908206" xlink:href="#m4b287ec309" y="55.470695498"/>
      </g>
     </g>
     <g id="line2d_42">
      <g>
       <use style="fill:#262626;stroke:#262626;" x="498.033990821" xlink:href="#m4b287ec309" y="55.470695498"/>
      </g>
     </g>
     <g id="text_15">
      <!-- $0.995$ -->
      <g style="fill:#262626;" transform="translate(21.9412413411 57.961355523)scale(0.1 -0.1)">
       <use transform="scale(0.9962640099626402)" xlink:href="#CMR17-48"/>
       <use transform="translate(45.69047711706103 0.0)scale(0.9962640099626402)" xlink:href="#CMMI12-58"/>
       <use transform="translate(72.78765420688046 0.0)scale(0.9962640099626402)" xlink:href="#CMR17-57"/>
       <use transform="translate(118.47813132394148 0.0)scale(0.9962640099626402)" xlink:href="#CMR17-57"/>
       <use transform="translate(164.1686084410025 0.0)scale(0.9962640099626402)" xlink:href="#CMR17-53"/>
      </g>
     </g>
    </g>
    <g id="ytick_8">
     <g id="line2d_43">
      <path clip-path="url(#p58384c2ec2)" d="M 51.633991 11.627838 
L 498.033991 11.627838 
" style="fill:none;stroke:#ffffff;stroke-linecap:round;"/>
     </g>
     <g id="line2d_44">
      <g>
       <use style="fill:#262626;stroke:#262626;" x="51.6339908206" xlink:href="#m4b287ec309" y="11.6278383552"/>
      </g>
     </g>
     <g id="line2d_45">
      <g>
       <use style="fill:#262626;stroke:#262626;" x="498.033990821" xlink:href="#m4b287ec309" y="11.6278383552"/>
      </g>
     </g>
     <g id="text_16">
      <!-- $1.000$ -->
      <g style="fill:#262626;" transform="translate(21.9412413411 14.1184983801)scale(0.1 -0.1)">
       <use transform="scale(0.9962640099626402)" xlink:href="#CMR17-49"/>
       <use transform="translate(45.69047711706103 0.0)scale(0.9962640099626402)" xlink:href="#CMMI12-58"/>
       <use transform="translate(72.78765420688046 0.0)scale(0.9962640099626402)" xlink:href="#CMR17-48"/>
       <use transform="translate(118.47813132394148 0.0)scale(0.9962640099626402)" xlink:href="#CMR17-48"/>
       <use transform="translate(164.1686084410025 0.0)scale(0.9962640099626402)" xlink:href="#CMR17-48"/>
      </g>
     </g>
    </g>
    <g id="text_17">
     <!-- a -->
     <defs>
      <path d="M 37.59375 27.984375 
C 37.59375 37.375 30.90625 43.875 21.90625 43.875 
C 17.5 43.875 12.703125 43.078125 7.203125 39.890625 
L 7.796875 33.359375 
C 10.296875 35.125 14.59375 38 21.796875 38 
C 26.90625 38 30 34.0625 30 27.84375 
L 30 24 
C 14 24 4 19.34375 4 11.34375 
C 4 7.203125 6.5 -1 14.796875 -1 
C 16.296875 -1 24.40625 -1 30.203125 3.390625 
L 30.203125 -0.296875 
L 37.59375 -0.296875 
z
M 30 12.75 
C 30 10.953125 30 8.5625 27 6.78125 
C 24.40625 5.078125 21.09375 5.078125 19.703125 5.078125 
C 14.703125 5.078125 11.296875 7.984375 11.296875 11.625 
C 11.296875 18.921875 26.90625 18.921875 30 18.921875 
z
" id="CMSS17-97"/>
     </defs>
     <g style="fill:#262626;" transform="translate(14.8103466979 167.711022691)rotate(-90.0)scale(0.11 -0.11)">
      <use transform="scale(0.9962640099626402)" xlink:href="#CMSS17-97"/>
     </g>
    </g>
   </g>
   <g id="PathCollection_1">
    <defs>
     <path d="M 0 2.236068 
C 0.593012 2.236068 1.161816 2.000462 1.581139 1.581139 
C 2.000462 1.161816 2.236068 0.593012 2.236068 0 
C 2.236068 -0.593012 2.000462 -1.161816 1.581139 -1.581139 
C 1.161816 -2.000462 0.593012 -2.236068 0 -2.236068 
C -0.593012 -2.236068 -1.161816 -2.000462 -1.581139 -1.581139 
C -2.000462 -1.161816 -2.236068 -0.593012 -2.236068 0 
C -2.236068 0.593012 -2.000462 1.161816 -1.581139 1.581139 
C -1.161816 2.000462 -0.593012 2.236068 0 2.236068 
z
" id="md0fee899b7" style="stroke:#1a1a1a;stroke-width:0.3;"/>
    </defs>
    <g clip-path="url(#p58384c2ec2)">
     <use style="fill:#4c72b0;stroke:#1a1a1a;stroke-width:0.3;" x="126.033990821" xlink:href="#md0fee899b7" y="172.446649122"/>
     <use style="fill:#4c72b0;stroke:#1a1a1a;stroke-width:0.3;" x="163.233990821" xlink:href="#md0fee899b7" y="219.640668656"/>
     <use style="fill:#4c72b0;stroke:#1a1a1a;stroke-width:0.3;" x="200.433990821" xlink:href="#md0fee899b7" y="146.740406252"/>
     <use style="fill:#4c72b0;stroke:#1a1a1a;stroke-width:0.3;" x="237.633990821" xlink:href="#md0fee899b7" y="108.921572536"/>
     <use style="fill:#4c72b0;stroke:#1a1a1a;stroke-width:0.3;" x="274.833990821" xlink:href="#md0fee899b7" y="133.694524253"/>
     <use style="fill:#4c72b0;stroke:#1a1a1a;stroke-width:0.3;" x="312.033990821" xlink:href="#md0fee899b7" y="126.167768897"/>
     <use style="fill:#4c72b0;stroke:#1a1a1a;stroke-width:0.3;" x="349.233990821" xlink:href="#md0fee899b7" y="96.8267215285"/>
     <use style="fill:#4c72b0;stroke:#1a1a1a;stroke-width:0.3;" x="386.433990821" xlink:href="#md0fee899b7" y="167.359326489"/>
     <use style="fill:#4c72b0;stroke:#1a1a1a;stroke-width:0.3;" x="423.633990821" xlink:href="#md0fee899b7" y="88.6685585685"/>
     <use style="fill:#4c72b0;stroke:#1a1a1a;stroke-width:0.3;" x="460.833990821" xlink:href="#md0fee899b7" y="91.9964228274"/>
    </g>
   </g>
   <g id="line2d_46">
    <path clip-path="url(#p58384c2ec2)" d="M 51.633991 135.246262 
L 498.033991 135.246262 
" style="fill:none;stroke:#008000;stroke-linecap:round;stroke-width:1.75;"/>
   </g>
   <g id="line2d_47">
    <path clip-path="url(#p58384c2ec2)" d="M 51.633991 11.627838 
L 498.033991 11.627838 
" style="fill:none;stroke:#800080;stroke-linecap:round;stroke-width:1.75;"/>
   </g>
   <g id="patch_3">
    <path d="M 498.033991 318.527838 
L 498.033991 11.627838 
" style="fill:none;"/>
   </g>
   <g id="patch_4">
    <path d="M 51.633991 11.627838 
L 498.033991 11.627838 
" style="fill:none;"/>
   </g>
   <g id="patch_5">
    <path d="M 51.633991 318.527838 
L 51.633991 11.627838 
" style="fill:none;"/>
   </g>
   <g id="patch_6">
    <path d="M 51.633991 318.527838 
L 498.033991 318.527838 
" style="fill:none;"/>
   </g>
   <g id="legend_1">
    <g id="line2d_48">
     <path d="M 66.561991 27.265838 
L 86.561991 27.265838 
" style="fill:none;stroke:#008000;stroke-linecap:round;stroke-width:1.75;"/>
    </g>
    <g id="line2d_49"/>
    <g id="text_18">
     <!-- Mittelwert des Verhältnisses a -->
     <defs>
      <path d="M 14.90625 21.296875 
C 14.90625 30.703125 21.796875 37 30.59375 37 
L 30.59375 43.578125 
C 24.203125 43.578125 18.203125 40.390625 14.59375 35.203125 
L 14.59375 43.09375 
L 7.5 43.09375 
L 7.5 0 
L 14.90625 0 
z
" id="CMSS17-114"/>
      <path d="M 16.703125 37 
L 29.703125 37 
L 29.703125 42.765625 
L 16.703125 42.765625 
L 16.703125 55 
L 9.59375 55 
L 9.59375 42.765625 
L 1.703125 42.765625 
L 1.703125 37 
L 9.40625 37 
L 9.40625 11.703125 
C 9.40625 6 10.703125 -1 17.296875 -1 
C 22.296875 -1 26.90625 0.390625 31.296875 2.6875 
L 29.703125 8.5625 
C 27.296875 6.46875 24.40625 5.265625 21.296875 5.265625 
C 16.90625 5.265625 16.703125 10.875 16.703125 13.375 
z
" id="CMSS17-116"/>
      <path d="M 18.40625 65.0625 
L 10.296875 65.0625 
L 10.296875 57 
L 18.40625 57 
z
M 36.59375 65.0625 
L 28.5 65.0625 
L 28.5 57 
L 36.59375 57 
z
" id="CMSS17-127"/>
      <path d="M 14.796875 69.078125 
L 7.40625 69.078125 
L 7.40625 0 
L 14.796875 0 
z
" id="CMSS17-108"/>
      <path d="M 62.703125 43 
L 55.09375 43 
L 49.796875 25.109375 
C 48.703125 21.328125 45.59375 10.890625 45.203125 6 
L 45.09375 6 
C 44.90625 9 43.203125 16.140625 40.40625 25.609375 
L 35.296875 43 
L 28.40625 43 
L 23.40625 26 
C 20.90625 17.34375 19 9.984375 18.796875 6 
L 18.703125 6 
C 18.296875 11.875 14.203125 25.609375 13.59375 27.796875 
L 9.09375 43 
L 1.296875 43 
L 14.296875 0 
L 21.90625 0 
C 27.09375 17.125 31.09375 30.359375 31.40625 37.03125 
C 31.59375 33.75 33.296875 26.671875 34.296875 23.1875 
L 40.90625 0 
L 49.703125 0 
z
" id="CMSS17-119"/>
      <path d="M 61.09375 69 
L 53.296875 69 
L 36 21.234375 
C 35.5 19.84375 32.40625 10.6875 31.796875 7.5 
L 31.703125 7.5 
C 30.90625 11.28125 27.703125 20.140625 26 25.015625 
L 14.40625 57.359375 
L 10.09375 69 
L 1.296875 69 
L 26.796875 0 
L 35.59375 0 
z
" id="CMSS17-86"/>
      <path d="M 15.296875 65.359375 
L 6.90625 65.359375 
L 6.90625 57 
L 15.296875 57 
z
M 14.796875 42.796875 
L 7.40625 42.796875 
L 7.40625 0 
L 14.796875 0 
z
" id="CMSS17-105"/>
      <path d="M 40.90625 29.328125 
C 40.90625 35.671875 39.40625 44 28.09375 44 
C 21.796875 44 17.703125 40.921875 14.796875 37.53125 
L 14.796875 69.078125 
L 7.40625 69.078125 
L 7.40625 0 
L 15 0 
L 15 24.359375 
C 15 30.6875 17.40625 37.9375 24.203125 37.9375 
C 33 37.9375 33.296875 32 33.296875 28.578125 
L 33.296875 0 
L 40.90625 0 
z
" id="CMSS17-104"/>
      <path d="M 40.796875 69 
L 33.40625 69 
L 33.40625 38.09375 
C 30.296875 40.671875 25.203125 43.0625 19.59375 43.0625 
C 10.5 43.0625 3.296875 33.296875 3.296875 21.03125 
C 3.296875 8.78125 10.40625 -1 19.296875 -1 
C 26.203125 -1 30.796875 2.6875 33.203125 4.78125 
L 33.203125 -0.078125 
L 40.796875 -0.078125 
z
M 33.203125 13.0625 
C 33.203125 11.671875 33.203125 10.203125 30.09375 7.53125 
C 28.09375 5.859375 25.703125 5.078125 23.40625 5.078125 
C 18 5.078125 10.90625 9 10.90625 20.9375 
C 10.90625 33.34375 18.90625 37 24.40625 37 
C 28.09375 37 31.09375 35.21875 33.203125 32.265625 
z
" id="CMSS17-100"/>
     </defs>
     <g style="fill:#262626;" transform="translate(94.5619908206 30.7658383552)scale(0.1 -0.1)">
      <use transform="scale(0.9962640099626402)" xlink:href="#CMSS17-77"/>
      <use transform="translate(81.67602995115972 0.0)scale(0.9962640099626402)" xlink:href="#CMSS17-105"/>
      <use transform="translate(103.85675299657535 0.0)scale(0.9962640099626402)" xlink:href="#CMSS17-116"/>
      <use transform="translate(137.68831968010588 0.0)scale(0.9962640099626402)" xlink:href="#CMSS17-116"/>
      <use transform="translate(171.51988636363637 0.0)scale(0.9962640099626402)" xlink:href="#CMSS17-101"/>
      <use transform="translate(213.15870843224627 0.0)scale(0.9962640099626402)" xlink:href="#CMSS17-108"/>
      <use transform="translate(235.33943147766192 0.0)scale(0.9962640099626402)" xlink:href="#CMSS17-119"/>
      <use transform="translate(296.55652265916876 0.0)scale(0.9962640099626402)" xlink:href="#CMSS17-101"/>
      <use transform="translate(338.19534472777866 0.0)scale(0.9962640099626402)" xlink:href="#CMSS17-114"/>
      <use transform="translate(370.10511728479145 0.0)scale(0.9962640099626402)" xlink:href="#CMSS17-116"/>
      <use transform="translate(435.1657967193338 0.0)scale(0.9962640099626402)" xlink:href="#CMSS17-100"/>
      <use transform="translate(483.3707398525063 0.0)scale(0.9962640099626402)" xlink:href="#CMSS17-101"/>
      <use transform="translate(525.0095619211162 0.0)scale(0.9962640099626402)" xlink:href="#CMSS17-115"/>
      <use transform="translate(592.1522166630994 0.0)scale(0.9962640099626402)" xlink:href="#CMSS17-86"/>
      <use transform="translate(651.7676176496343 0.0)scale(0.9962640099626402)" xlink:href="#CMSS17-101"/>
      <use transform="translate(693.4064397182442 0.0)scale(0.9962640099626402)" xlink:href="#CMSS17-114"/>
      <use transform="translate(725.3162122752569 0.0)scale(0.9962640099626402)" xlink:href="#CMSS17-104"/>
      <use transform="translate(772.5602963496265 0.0)scale(0.9962640099626402)" xlink:href="#CMSS17-127"/>
      <use transform="translate(773.5211554084294 0.0)scale(0.9962640099626402)" xlink:href="#CMSS17-97"/>
      <use transform="translate(818.4430760137766 0.0)scale(0.9962640099626402)" xlink:href="#CMSS17-108"/>
      <use transform="translate(840.6237990591922 0.0)scale(0.9962640099626402)" xlink:href="#CMSS17-116"/>
      <use transform="translate(874.4553657427227 0.0)scale(0.9962640099626402)" xlink:href="#CMSS17-110"/>
      <use transform="translate(922.6603088758952 0.0)scale(0.9962640099626402)" xlink:href="#CMSS17-105"/>
      <use transform="translate(944.8410319213108 0.0)scale(0.9962640099626402)" xlink:href="#CMSS17-115"/>
      <use transform="translate(980.7545739122821 0.0)scale(0.9962640099626402)" xlink:href="#CMSS17-115"/>
      <use transform="translate(1016.6681159032536 0.0)scale(0.9962640099626402)" xlink:href="#CMSS17-101"/>
      <use transform="translate(1058.3069379718634 0.0)scale(0.9962640099626402)" xlink:href="#CMSS17-115"/>
      <use transform="translate(1125.4495927138466 0.0)scale(0.9962640099626402)" xlink:href="#CMSS17-97"/>
     </g>
    </g>
    <g id="line2d_50">
     <path d="M 66.561991 41.203017 
L 86.561991 41.203017 
" style="fill:none;stroke:#800080;stroke-linecap:round;stroke-width:1.75;"/>
    </g>
    <g id="line2d_51"/>
    <g id="text_19">
     <!-- Erwarteter Wert 1 -->
     <defs>
      <path d="M 87.203125 69 
L 79.59375 69 
L 71.203125 38.0625 
C 69.90625 33.078125 68.703125 28.109375 67.5 23.125 
C 65.703125 15.765625 64.40625 10.59375 64.203125 8 
L 64.09375 8 
C 63.90625 10.6875 62.59375 16.359375 61 22.734375 
C 59.796875 28.015625 58.5 33.28125 57.09375 38.453125 
L 48.796875 69 
L 40.40625 69 
L 32.5 40.078125 
L 28.5 24.28125 
C 25.5 11.78125 25.40625 9.984375 25.203125 8 
L 25.09375 8 
C 25.09375 8.59375 24.703125 11.875 21.90625 23.484375 
C 20.5 29.265625 19.09375 35.125 17.59375 40.6875 
L 9.90625 69 
L 1.296875 69 
L 20.296875 0 
L 28.59375 0 
L 36.5 28.765625 
L 40.5 44.578125 
C 43.203125 55.734375 43.796875 58.515625 44 61 
L 44.09375 61 
C 44.09375 60.609375 45 54.328125 48.90625 39.796875 
L 59.5 0 
L 68.203125 0 
z
" id="CMSS17-87"/>
      <path d="M 30.59375 6.765625 
C 22.59375 6.765625 19 6.765625 17.203125 6.765625 
L 17.203125 32.921875 
L 48.203125 32.921875 
L 48.203125 39 
L 17.203125 39 
L 17.203125 62.640625 
L 30.09375 62.640625 
C 31.296875 62.640625 32.5 62.640625 33.703125 62.640625 
L 50.796875 62.640625 
L 50.796875 69 
L 8.796875 69 
L 8.796875 0 
L 52.09375 0 
L 52.09375 6.765625 
z
" id="CMSS17-69"/>
      <path d="M 28.40625 67 
L 26.5 67 
C 21.09375 61.5625 14.796875 60.78125 8.40625 60.78125 
L 8.40625 55 
C 11.296875 55 16 55 20.703125 57.296875 
L 20.703125 5.765625 
L 8.90625 5.765625 
L 8.90625 0 
L 40.203125 0 
L 40.203125 5.765625 
L 28.40625 5.765625 
z
" id="CMSS17-49"/>
     </defs>
     <g style="fill:#262626;" transform="translate(94.5619908206 44.7030166855)scale(0.1 -0.1)">
      <use transform="scale(0.9962640099626402)" xlink:href="#CMSS17-69"/>
      <use transform="translate(55.89201322676682 0.0)scale(0.9962640099626402)" xlink:href="#CMSS17-114"/>
      <use transform="translate(87.80178578377958 0.0)scale(0.9962640099626402)" xlink:href="#CMSS17-119"/>
      <use transform="translate(149.01887696528644 0.0)scale(0.9962640099626402)" xlink:href="#CMSS17-97"/>
      <use transform="translate(191.3383436381149 0.0)scale(0.9962640099626402)" xlink:href="#CMSS17-114"/>
      <use transform="translate(223.24811619512766 0.0)scale(0.9962640099626402)" xlink:href="#CMSS17-116"/>
      <use transform="translate(257.07968287865816 0.0)scale(0.9962640099626402)" xlink:href="#CMSS17-101"/>
      <use transform="translate(298.71850494726806 0.0)scale(0.9962640099626402)" xlink:href="#CMSS17-116"/>
      <use transform="translate(332.5500716307986 0.0)scale(0.9962640099626402)" xlink:href="#CMSS17-101"/>
      <use transform="translate(374.1888936994085 0.0)scale(0.9962640099626402)" xlink:href="#CMSS17-114"/>
      <use transform="translate(437.3277790074331 0.0)scale(0.9962640099626402)" xlink:href="#CMSS17-87"/>
      <use transform="translate(522.9674912924191 0.0)scale(0.9962640099626402)" xlink:href="#CMSS17-101"/>
      <use transform="translate(564.606313361029 0.0)scale(0.9962640099626402)" xlink:href="#CMSS17-114"/>
      <use transform="translate(596.5160859180418 0.0)scale(0.9962640099626402)" xlink:href="#CMSS17-116"/>
      <use transform="translate(661.5767653525842 0.0)scale(0.9962640099626402)" xlink:href="#CMSS17-49"/>
     </g>
    </g>
    <g id="PathCollection_2">
     <path d="M 76.561991 60.217593 
C 77.155003 60.217593 77.723807 59.981987 78.14313 59.562664 
C 78.562453 59.143341 78.798059 58.574538 78.798059 57.981526 
C 78.798059 57.388513 78.562453 56.81971 78.14313 56.400387 
C 77.723807 55.981064 77.155003 55.745458 76.561991 55.745458 
C 75.968979 55.745458 75.400175 55.981064 74.980852 56.400387 
C 74.561529 56.81971 74.325923 57.388513 74.325923 57.981526 
C 74.325923 58.574538 74.561529 59.143341 74.980852 59.562664 
C 75.400175 59.981987 75.968979 60.217593 76.561991 60.217593 
z
" style="fill:#4c72b0;stroke:#1a1a1a;stroke-width:0.3;"/>
     <path d="M 76.561991 60.217593 
C 77.155003 60.217593 77.723807 59.981987 78.14313 59.562664 
C 78.562453 59.143341 78.798059 58.574538 78.798059 57.981526 
C 78.798059 57.388513 78.562453 56.81971 78.14313 56.400387 
C 77.723807 55.981064 77.155003 55.745458 76.561991 55.745458 
C 75.968979 55.745458 75.400175 55.981064 74.980852 56.400387 
C 74.561529 56.81971 74.325923 57.388513 74.325923 57.981526 
C 74.325923 58.574538 74.561529 59.143341 74.980852 59.562664 
C 75.400175 59.981987 75.968979 60.217593 76.561991 60.217593 
z
" style="fill:#4c72b0;stroke:#1a1a1a;stroke-width:0.3;"/>
     <path d="M 76.561991 60.217593 
C 77.155003 60.217593 77.723807 59.981987 78.14313 59.562664 
C 78.562453 59.143341 78.798059 58.574538 78.798059 57.981526 
C 78.798059 57.388513 78.562453 56.81971 78.14313 56.400387 
C 77.723807 55.981064 77.155003 55.745458 76.561991 55.745458 
C 75.968979 55.745458 75.400175 55.981064 74.980852 56.400387 
C 74.561529 56.81971 74.325923 57.388513 74.325923 57.981526 
C 74.325923 58.574538 74.561529 59.143341 74.980852 59.562664 
C 75.400175 59.981987 75.968979 60.217593 76.561991 60.217593 
z
" style="fill:#4c72b0;stroke:#1a1a1a;stroke-width:0.3;"/>
    </g>
    <g id="text_20">
     <!-- errechnetes Verhältnis $a_i = V_{F,i}/V_{B,i}$ -->
     <defs>
      <path d="M 19.5 -0.484375 
C 19.5 5.359375 17.59375 9.671875 13.5 9.671875 
C 10.296875 9.671875 8.703125 7.078125 8.703125 4.890625 
C 8.703125 2.6875 10.203125 0 13.59375 0 
C 14.90625 0 16 0.40625 16.90625 1.296875 
C 17.09375 1.5 17.203125 1.5 17.296875 1.5 
C 17.5 1.5 17.5 0.078125 17.5 -0.421875 
C 17.5 -3.75 16.90625 -10.296875 11.09375 -16.875 
C 10 -18.078125 10 -18.28125 10 -18.484375 
C 10 -19 10.5 -19.5 11 -19.5 
C 11.796875 -19.5 19.5 -12.046875 19.5 -0.484375 
" id="CMMI12-59"/>
      <path d="M 29.703125 32.109375 
L 39.296875 32.109375 
C 46.90625 32.109375 47.5 30.4375 47.5 27.578125 
C 47.5 26.3125 47.296875 24.9375 46.796875 22.765625 
C 46.59375 22.375 46.5 21.890625 46.5 21.6875 
C 46.5 21 46.90625 20.609375 47.59375 20.609375 
C 48.40625 20.609375 48.5 21 48.90625 22.59375 
L 54.703125 45.84375 
C 54.703125 46.234375 54.40625 46.84375 53.703125 46.84375 
C 52.796875 46.84375 52.703125 46.453125 52.296875 44.71875 
C 50.203125 37.125 48.203125 35 39.5 35 
L 30.40625 35 
L 36.90625 61.25 
C 37.796875 64.8125 38 65.109375 42.09375 65.109375 
L 55.5 65.109375 
C 68 65.109375 69.796875 61.359375 69.796875 54.15625 
C 69.796875 53.546875 69.796875 51.3125 69.5 48.671875 
C 69.40625 48.28125 69.203125 46.96875 69.203125 46.546875 
C 69.203125 45.734375 69.703125 45.4375 70.296875 45.4375 
C 71 45.4375 71.40625 45.84375 71.59375 47.65625 
L 73.703125 65.40625 
C 73.703125 65.703125 73.90625 66.703125 73.90625 66.90625 
C 73.90625 68 73 68 71.203125 68 
L 23.796875 68 
C 21.90625 68 20.90625 68 20.90625 66.203125 
C 20.90625 65.109375 21.59375 65.109375 23.296875 65.109375 
C 29.5 65.109375 29.5 64.40625 29.5 63.3125 
C 29.5 62.8125 29.40625 62.40625 29.09375 61.3125 
L 15.59375 7.390625 
C 14.703125 3.890625 14.5 2.890625 7.5 2.890625 
C 5.59375 2.890625 4.59375 2.890625 4.59375 1.09375 
C 4.59375 0 5.5 0 6.09375 0 
C 8 0 10 0 11.90625 0 
L 24.90625 0 
C 27.09375 0 29.5 0 31.703125 0 
C 32.59375 0 33.796875 0 33.796875 1.796875 
C 33.796875 2.890625 33.203125 2.890625 31 2.890625 
C 23.09375 2.890625 22.90625 3.578125 22.90625 5.0625 
C 22.90625 5.5625 23.09375 6.34375 23.296875 7.015625 
z
" id="CMMI12-70"/>
      <path d="M 28.296875 14.265625 
C 28.296875 14.765625 27.90625 15.171875 27.296875 15.171875 
C 26.40625 15.171875 26.296875 14.875 25.796875 13.171875 
C 23.203125 4.09375 19.09375 1 15.796875 1 
C 14.59375 1 13.203125 1.296875 13.203125 4.296875 
C 13.203125 6.984375 14.40625 9.984375 15.5 12.96875 
L 22.5 31.53125 
C 22.796875 32.328125 23.5 34.125 23.5 36.015625 
C 23.5 40.21875 20.5 44 15.59375 44 
C 6.40625 44 2.703125 29.53125 2.703125 28.734375 
C 2.703125 28.34375 3.09375 27.84375 3.796875 27.84375 
C 4.703125 27.84375 4.796875 28.234375 5.203125 29.625 
C 7.59375 37.9375 11.40625 41.90625 15.296875 41.90625 
C 16.203125 41.90625 17.90625 41.90625 17.90625 38.71875 
C 17.90625 36.125 16.59375 32.828125 15.796875 30.640625 
L 8.796875 12.078125 
C 8.203125 10.484375 7.59375 8.875 7.59375 7.078125 
C 7.59375 2.59375 10.703125 -1 15.5 -1 
C 24.703125 -1 28.296875 13.578125 28.296875 14.265625 
M 27.5 62.703125 
C 27.5 64.203125 26.296875 66 24.09375 66 
C 21.796875 66 19.203125 63.796875 19.203125 61.203125 
C 19.203125 58.71875 21.296875 57.921875 22.5 57.921875 
C 25.203125 57.921875 27.5 60.515625 27.5 62.703125 
" id="CMMI12-105"/>
      <path d="M 38.5 39.71875 
C 38.5 40.40625 33.90625 42.40625 32.703125 42.796875 
C 29.40625 44 25.203125 44 24.09375 44 
C 11.09375 44 3.296875 32.703125 3.296875 21.296875 
C 3.296875 9.296875 12 -1 23.703125 -1 
C 30.40625 -1 35.203125 1.1875 39.09375 3.78125 
L 38.5 10.375 
C 34.203125 7.078125 29.203125 5.265625 23.796875 5.265625 
C 16 5.265625 10.90625 12.09375 10.90625 21.390625 
C 10.90625 28.609375 14.203125 37.71875 24.203125 37.71875 
C 29.703125 37.71875 32.796875 36.609375 37.40625 33.515625 
z
" id="CMSS17-99"/>
      <path d="M 30.09375 11.875 
C 29.59375 10.171875 29.59375 9.984375 28.203125 8.078125 
C 26 5.28125 21.59375 1 16.90625 1 
C 12.796875 1 10.5 4.6875 10.5 10.578125 
C 10.5 16.0625 13.59375 27.234375 15.5 31.4375 
C 18.90625 38.421875 23.59375 42.015625 27.5 42.015625 
C 34.09375 42.015625 35.40625 33.828125 35.40625 33.03125 
C 35.40625 32.9375 35.09375 31.625 35 31.4375 
z
M 36.5 37.421875 
C 35.40625 40.015625 32.703125 44 27.5 44 
C 16.203125 44 4 29.4375 4 14.671875 
C 4 4.796875 9.796875 -1 16.59375 -1 
C 22.09375 -1 26.796875 3.296875 29.59375 6.59375 
C 30.59375 0.703125 35.296875 -1 38.296875 -1 
C 41.296875 -1 43.703125 0.796875 45.5 4.390625 
C 47.09375 7.78125 48.5 13.875 48.5 14.265625 
C 48.5 14.765625 48.09375 15.171875 47.5 15.171875 
C 46.59375 15.171875 46.5 14.671875 46.09375 13.171875 
C 44.59375 7.28125 42.703125 1 38.59375 1 
C 35.703125 1 35.5 3.59375 35.5 5.59375 
C 35.5 7.890625 35.796875 8.984375 36.703125 12.875 
C 37.40625 15.375 37.90625 17.5625 38.703125 20.453125 
C 42.40625 35.421875 43.296875 39.015625 43.296875 39.609375 
C 43.296875 41.015625 42.203125 42.109375 40.703125 42.109375 
C 37.5 42.109375 36.703125 38.625 36.5 37.421875 
" id="CMMI12-97"/>
      <path d="M 42.90625 71.296875 
C 42.90625 71.40625 43.5 72.90625 43.5 73.09375 
C 43.5 74.296875 42.5 75 41.703125 75 
C 41.203125 75 40.296875 75 39.5 72.796875 
L 6 -21.296875 
C 6 -21.40625 5.40625 -22.890625 5.40625 -23.09375 
C 5.40625 -24.296875 6.40625 -25 7.203125 -25 
C 7.796875 -25 8.703125 -24.890625 9.40625 -22.796875 
z
" id="CMMI12-61"/>
      <path d="M 61.90625 56.71875 
C 65.296875 62.109375 68.40625 64.5 73.5 64.90625 
C 74.5 65 75.296875 65 75.296875 66.734375 
C 75.296875 67.125 75.09375 67.703125 74.203125 67.703125 
C 72.40625 67.703125 68.09375 67.703125 66.296875 67.703125 
C 63.40625 67.703125 60.40625 67.703125 57.59375 67.703125 
C 56.796875 67.703125 55.796875 67.703125 55.796875 65.9375 
C 55.796875 65.09375 56.703125 65 57.09375 65 
C 60.796875 64.703125 61.203125 62.90625 61.203125 61.703125 
C 61.203125 60.1875 59.796875 57.890625 59.703125 57.796875 
L 28.296875 7.984375 
L 21.296875 61.8125 
C 21.296875 65 26.5 65 27.59375 65 
C 29.09375 65 30 65 30 66.765625 
C 30 67.703125 28.90625 67.703125 28.59375 67.703125 
C 26.90625 67.703125 24.90625 67.703125 23.203125 67.703125 
L 17.59375 67.703125 
C 10.296875 67.703125 7.296875 67.703125 7.203125 67.703125 
C 6.59375 67.703125 5.40625 67.703125 5.40625 66.015625 
C 5.40625 65 6.09375 65 7.703125 65 
C 12.796875 65 13.09375 64.09375 13.40625 61.609375 
L 21.40625 -0.109375 
C 21.703125 -2.203125 21.703125 -2.5 23.09375 -2.5 
C 24.296875 -2.5 24.796875 -2.203125 25.796875 -0.609375 
z
" id="CMMI12-86"/>
      <path d="M 36.59375 61.1875 
C 37.5 64.90625 37.90625 65.109375 41.796875 65.109375 
L 54.796875 65.109375 
C 66.09375 65.109375 66.09375 55.4375 66.09375 54.53125 
C 66.09375 46.375 58 36 44.796875 36 
L 30.40625 36 
z
M 53.5 35.203125 
C 64.40625 37.21875 74.296875 44.859375 74.296875 54.125 
C 74.296875 61.96875 67.40625 68 56.09375 68 
L 24 68 
C 22.09375 68 21.203125 68 21.203125 66.109375 
C 21.203125 65.109375 22.09375 65.109375 23.59375 65.109375 
C 29.703125 65.109375 29.703125 64.3125 29.703125 63.203125 
C 29.703125 63.015625 29.703125 62.40625 29.296875 60.921875 
L 15.796875 7.375 
C 14.90625 3.890625 14.703125 2.890625 7.703125 2.890625 
C 5.796875 2.890625 4.796875 2.890625 4.796875 1.09375 
C 4.796875 0 5.40625 0 7.40625 0 
L 41.703125 0 
C 57 0 68.796875 11.4375 68.796875 21.40625 
C 68.796875 29.484375 61.59375 34.421875 53.5 35.203125 
M 39.296875 2.890625 
L 25.796875 2.890625 
C 24.40625 2.890625 24.203125 2.890625 23.59375 3 
C 22.5 3.09375 22.40625 3.296875 22.40625 4.078125 
C 22.40625 4.765625 22.59375 5.359375 22.796875 6.234375 
L 29.796875 34 
L 48.59375 34 
C 60.40625 34 60.40625 23.171875 60.40625 22.390625 
C 60.40625 12.9375 51.703125 2.890625 39.296875 2.890625 
" id="CMMI12-66"/>
      <path d="M 64.296875 31.515625 
C 65.796875 31.515625 67.296875 31.515625 67.296875 33.203125 
C 67.296875 35 65.59375 35 63.90625 35 
L 8 35 
C 6.296875 35 4.59375 35 4.59375 33.203125 
C 4.59375 31.515625 6.09375 31.515625 7.59375 31.515625 
z
M 63.90625 14 
C 65.59375 14 67.296875 14 67.296875 15.796875 
C 67.296875 17.484375 65.796875 17.484375 64.296875 17.484375 
L 7.59375 17.484375 
C 6.09375 17.484375 4.59375 17.484375 4.59375 15.796875 
C 4.59375 14 6.296875 14 8 14 
z
" id="CMR17-61"/>
     </defs>
     <g style="fill:#262626;" transform="translate(94.5619908206 60.6065255001)scale(0.1 -0.1)">
      <use transform="translate(0.0 20.76099818551526)scale(0.9962640099626402)" xlink:href="#CMSS17-101"/>
      <use transform="translate(41.638822068609905 20.76099818551526)scale(0.9962640099626402)" xlink:href="#CMSS17-114"/>
      <use transform="translate(73.54859462562267 20.76099818551526)scale(0.9962640099626402)" xlink:href="#CMSS17-114"/>
      <use transform="translate(105.45836718263544 20.76099818551526)scale(0.9962640099626402)" xlink:href="#CMSS17-101"/>
      <use transform="translate(147.09718925124534 20.76099818551526)scale(0.9962640099626402)" xlink:href="#CMSS17-99"/>
      <use transform="translate(188.73601131985524 20.76099818551526)scale(0.9962640099626402)" xlink:href="#CMSS17-104"/>
      <use transform="translate(236.94095445302773 20.76099818551526)scale(0.9962640099626402)" xlink:href="#CMSS17-110"/>
      <use transform="translate(285.1458975862002 20.76099818551526)scale(0.9962640099626402)" xlink:href="#CMSS17-101"/>
      <use transform="translate(326.78471965481015 20.76099818551526)scale(0.9962640099626402)" xlink:href="#CMSS17-116"/>
      <use transform="translate(360.6162863383406 20.76099818551526)scale(0.9962640099626402)" xlink:href="#CMSS17-101"/>
      <use transform="translate(402.2551084069505 20.76099818551526)scale(0.9962640099626402)" xlink:href="#CMSS17-115"/>
      <use transform="translate(469.39776314893373 20.76099818551526)scale(0.9962640099626402)" xlink:href="#CMSS17-86"/>
      <use transform="translate(529.0131641354686 20.76099818551526)scale(0.9962640099626402)" xlink:href="#CMSS17-101"/>
      <use transform="translate(570.6519862040785 20.76099818551526)scale(0.9962640099626402)" xlink:href="#CMSS17-114"/>
      <use transform="translate(602.5617587610913 20.76099818551526)scale(0.9962640099626402)" xlink:href="#CMSS17-104"/>
      <use transform="translate(649.8058428354608 20.76099818551526)scale(0.9962640099626402)" xlink:href="#CMSS17-127"/>
      <use transform="translate(650.7667018942637 20.76099818551526)scale(0.9962640099626402)" xlink:href="#CMSS17-97"/>
      <use transform="translate(695.6886224996109 20.76099818551526)scale(0.9962640099626402)" xlink:href="#CMSS17-108"/>
      <use transform="translate(717.8693455450265 20.76099818551526)scale(0.9962640099626402)" xlink:href="#CMSS17-116"/>
      <use transform="translate(751.7009122285571 20.76099818551526)scale(0.9962640099626402)" xlink:href="#CMSS17-110"/>
      <use transform="translate(799.9058553617296 20.76099818551526)scale(0.9962640099626402)" xlink:href="#CMSS17-105"/>
      <use transform="translate(822.0865784071451 20.76099818551526)scale(0.9962640099626402)" xlink:href="#CMSS17-115"/>
      <use transform="translate(889.2292331491284 20.76099818551526)scale(0.9962640099626402)" xlink:href="#CMMI12-97"/>
      <use transform="translate(940.4370907680185 0.0)scale(0.6973817666173724)" xlink:href="#CMMI12-105"/>
      <use transform="translate(991.9041387764634 20.76099818551526)scale(0.9962640099626402)" xlink:href="#CMR17-61"/>
      <use transform="translate(1091.2929359141501 20.76099818551526)scale(0.9962640099626402)" xlink:href="#CMMI12-86"/>
      <use transform="translate(1148.162514958554 0.0)scale(0.6973817666173724)" xlink:href="#CMMI12-70"/>
      <use transform="translate(1194.262847330324 0.0)scale(0.6973817666173724)" xlink:href="#CMMI12-59"/>
      <use transform="translate(1213.2307800825033 0.0)scale(0.6973817666173724)" xlink:href="#CMMI12-105"/>
      <use transform="translate(1237.0238193687735 20.76099818551526)scale(0.9962640099626402)" xlink:href="#CMMI12-61"/>
      <use transform="translate(1285.7987381304486 20.76099818551526)scale(0.9962640099626402)" xlink:href="#CMMI12-86"/>
      <use transform="translate(1342.6683171748523 0.0)scale(0.6973817666173724)" xlink:href="#CMMI12-66"/>
      <use transform="translate(1398.0629432839744 0.0)scale(0.6973817666173724)" xlink:href="#CMMI12-59"/>
      <use transform="translate(1417.0308760361536 0.0)scale(0.6973817666173724)" xlink:href="#CMMI12-105"/>
     </g>
    </g>
   </g>
  </g>
 </g>
 <defs>
  <clipPath id="p58384c2ec2">
   <rect height="306.9" width="446.4" x="51.6339908206" y="11.6278383552"/>
  </clipPath>
 </defs>
</svg>
