<?xml version="1.0" encoding="utf-8" standalone="no"?>
<!DOCTYPE svg PUBLIC "-//W3C//DTD SVG 1.1//EN"
  "http://www.w3.org/Graphics/SVG/1.1/DTD/svg11.dtd">
<!-- Created with matplotlib (http://matplotlib.org/) -->
<svg height="351pt" version="1.1" viewBox="0 0 506 351" width="506pt" xmlns="http://www.w3.org/2000/svg" xmlns:xlink="http://www.w3.org/1999/xlink">
 <defs>
  <style type="text/css">
*{stroke-linecap:butt;stroke-linejoin:round;stroke-miterlimit:100000;}
  </style>
 </defs>
 <g id="figure_1">
  <g id="patch_1">
   <path d="M 0 351.896918 
L 506.451654 351.896918 
L 506.451654 0 
L 0 0 
z
" style="fill:#ffffff;"/>
  </g>
  <g id="axes_1">
   <g id="patch_2">
    <path d="M 47.870318 314.1 
L 494.270318 314.1 
L 494.270318 7.2 
L 47.870318 7.2 
z
" style="fill:#eaeaf2;"/>
   </g>
   <g id="matplotlib.axis_1">
    <g id="xtick_1">
     <g id="line2d_1">
      <path clip-path="url(#p09ab0df76a)" d="M 47.870318 314.1 
L 47.870318 7.2 
" style="fill:none;stroke:#ffffff;stroke-linecap:round;"/>
     </g>
     <g id="line2d_2">
      <defs>
       <path d="M 0 0 
L 0 0 
" id="mf387cfba4a" style="stroke:#262626;"/>
      </defs>
      <g>
       <use style="fill:#262626;stroke:#262626;" x="47.8703183375" xlink:href="#mf387cfba4a" y="314.1"/>
      </g>
     </g>
     <g id="line2d_3">
      <g>
       <use style="fill:#262626;stroke:#262626;" x="47.8703183375" xlink:href="#mf387cfba4a" y="7.2"/>
      </g>
     </g>
     <g id="text_1">
      <!-- $-5$ -->
      <defs>
       <path d="M 11.40625 57.6875 
C 12.40625 57.28125 16.5 56 20.703125 56 
C 30 56 35.09375 61.015625 38 63.921875 
C 38 64.734375 38 65.25 37.40625 65.25 
C 37.296875 65.25 37.09375 65.25 36.296875 64.828125 
C 32.796875 63.3125 28.703125 62.078125 23.703125 62.078125 
C 20.703125 62.078125 16.203125 62.5 11.296875 64.734375 
C 10.203125 65.25 10 65.25 9.90625 65.25 
C 9.40625 65.25 9.296875 65.140625 9.296875 63.15625 
L 9.296875 34.28125 
C 9.296875 32.5 9.296875 32 10.296875 32 
C 10.796875 32 11 32.203125 11.5 32.90625 
C 14.703125 37.484375 19.09375 39.40625 24.09375 39.40625 
C 27.59375 39.40625 35.09375 37.21875 35.09375 20.140625 
C 35.09375 16.953125 35.09375 11.171875 32.09375 6.578125 
C 29.59375 2.484375 25.703125 0.390625 21.40625 0.390625 
C 14.796875 0.390625 8.09375 5 6.296875 12.71875 
C 6.703125 12.609375 7.5 12.421875 7.90625 12.421875 
C 9.203125 12.421875 11.703125 13.125 11.703125 16.21875 
C 11.703125 18.90625 9.796875 20 7.90625 20 
C 5.59375 20 4.09375 18.59375 4.09375 15.796875 
C 4.09375 7.09375 11 -2 21.59375 -2 
C 31.90625 -2 41.703125 6.875 41.703125 19.75 
C 41.703125 31.71875 33.90625 41 24.203125 41 
C 19.09375 41 14.796875 39.09375 11.40625 35.453125 
z
" id="CMR17-53"/>
       <path d="M 65.90625 23 
C 67.59375 23 69.40625 23 69.40625 25 
C 69.40625 27 67.59375 27 65.90625 27 
L 11.796875 27 
C 10.09375 27 8.296875 27 8.296875 25 
C 8.296875 23 10.09375 23 11.796875 23 
z
" id="CMSY10-0"/>
      </defs>
      <g style="fill:#262626;" transform="translate(41.5052788493 328.01849838)scale(0.1 -0.1)">
       <use transform="scale(0.9962640099626402)" xlink:href="#CMSY10-0"/>
       <use transform="translate(77.4874676506071 0.0)scale(0.9962640099626402)" xlink:href="#CMR17-53"/>
      </g>
     </g>
    </g>
    <g id="xtick_2">
     <g id="line2d_4">
      <path clip-path="url(#p09ab0df76a)" d="M 122.270318 314.1 
L 122.270318 7.2 
" style="fill:none;stroke:#ffffff;stroke-linecap:round;"/>
     </g>
     <g id="line2d_5">
      <g>
       <use style="fill:#262626;stroke:#262626;" x="122.270318337" xlink:href="#mf387cfba4a" y="314.1"/>
      </g>
     </g>
     <g id="line2d_6">
      <g>
       <use style="fill:#262626;stroke:#262626;" x="122.270318337" xlink:href="#mf387cfba4a" y="7.2"/>
      </g>
     </g>
     <g id="text_2">
      <!-- $0$ -->
      <defs>
       <path d="M 42 31.640625 
C 42 37.75 41.90625 48.125 37.703125 56.109375 
C 34 63.109375 28.09375 65.59375 22.90625 65.59375 
C 18.09375 65.59375 12 63.40625 8.203125 56.203125 
C 4.203125 48.71875 3.796875 39.4375 3.796875 31.640625 
C 3.796875 25.953125 3.90625 17.28125 7 9.671875 
C 11.296875 -0.609375 19 -2 22.90625 -2 
C 27.5 -2 34.5 -0.109375 38.59375 9.375 
C 41.59375 16.28125 42 24.359375 42 31.640625 
M 22.90625 -0.40625 
C 16.5 -0.40625 12.703125 5.078125 11.296875 12.6875 
C 10.203125 18.5625 10.203125 27.15625 10.203125 32.75 
C 10.203125 40.4375 10.203125 46.828125 11.5 52.921875 
C 13.40625 61.390625 19 64 22.90625 64 
C 27 64 32.296875 61.296875 34.203125 53.125 
C 35.5 47.4375 35.59375 40.734375 35.59375 32.75 
C 35.59375 26.25 35.59375 18.265625 34.40625 12.375 
C 32.296875 1.484375 26.40625 -0.40625 22.90625 -0.40625 
" id="CMR17-48"/>
      </defs>
      <g style="fill:#262626;" transform="translate(119.779650712 328.01849838)scale(0.1 -0.1)">
       <use transform="scale(0.9962640099626402)" xlink:href="#CMR17-48"/>
      </g>
     </g>
    </g>
    <g id="xtick_3">
     <g id="line2d_7">
      <path clip-path="url(#p09ab0df76a)" d="M 196.670318 314.1 
L 196.670318 7.2 
" style="fill:none;stroke:#ffffff;stroke-linecap:round;"/>
     </g>
     <g id="line2d_8">
      <g>
       <use style="fill:#262626;stroke:#262626;" x="196.670318337" xlink:href="#mf387cfba4a" y="314.1"/>
      </g>
     </g>
     <g id="line2d_9">
      <g>
       <use style="fill:#262626;stroke:#262626;" x="196.670318337" xlink:href="#mf387cfba4a" y="7.2"/>
      </g>
     </g>
     <g id="text_3">
      <!-- $5$ -->
      <g style="fill:#262626;" transform="translate(194.179650712 328.01849838)scale(0.1 -0.1)">
       <use transform="scale(0.9962640099626402)" xlink:href="#CMR17-53"/>
      </g>
     </g>
    </g>
    <g id="xtick_4">
     <g id="line2d_10">
      <path clip-path="url(#p09ab0df76a)" d="M 271.070318 314.1 
L 271.070318 7.2 
" style="fill:none;stroke:#ffffff;stroke-linecap:round;"/>
     </g>
     <g id="line2d_11">
      <g>
       <use style="fill:#262626;stroke:#262626;" x="271.070318337" xlink:href="#mf387cfba4a" y="314.1"/>
      </g>
     </g>
     <g id="line2d_12">
      <g>
       <use style="fill:#262626;stroke:#262626;" x="271.070318337" xlink:href="#mf387cfba4a" y="7.2"/>
      </g>
     </g>
     <g id="text_4">
      <!-- $10$ -->
      <defs>
       <path d="M 26.59375 63.3125 
C 26.59375 65.40625 26.5 65.5 25.09375 65.5 
C 21.203125 61.1875 15.296875 59.796875 9.703125 59.796875 
C 9.40625 59.796875 8.90625 59.796875 8.796875 59.609375 
C 8.703125 59.390625 8.703125 59.171875 8.703125 57 
C 11.796875 57 17 57.59375 21 59.984375 
L 21 7.203125 
C 21 3.6875 20.796875 2.5 12.203125 2.5 
L 9.203125 2.5 
L 9.203125 0 
C 14 0 19 0 23.796875 0 
C 28.59375 0 33.59375 0 38.40625 0 
L 38.40625 2.5 
L 35.40625 2.5 
C 26.796875 2.5 26.59375 3.59375 26.59375 7.15625 
z
" id="CMR17-49"/>
      </defs>
      <g style="fill:#262626;" transform="translate(266.088983086 328.01849838)scale(0.1 -0.1)">
       <use transform="scale(0.9962640099626402)" xlink:href="#CMR17-49"/>
       <use transform="translate(45.69047711706103 0.0)scale(0.9962640099626402)" xlink:href="#CMR17-48"/>
      </g>
     </g>
    </g>
    <g id="xtick_5">
     <g id="line2d_13">
      <path clip-path="url(#p09ab0df76a)" d="M 345.470318 314.1 
L 345.470318 7.2 
" style="fill:none;stroke:#ffffff;stroke-linecap:round;"/>
     </g>
     <g id="line2d_14">
      <g>
       <use style="fill:#262626;stroke:#262626;" x="345.470318337" xlink:href="#mf387cfba4a" y="314.1"/>
      </g>
     </g>
     <g id="line2d_15">
      <g>
       <use style="fill:#262626;stroke:#262626;" x="345.470318337" xlink:href="#mf387cfba4a" y="7.2"/>
      </g>
     </g>
     <g id="text_5">
      <!-- $15$ -->
      <g style="fill:#262626;" transform="translate(340.488983086 328.01849838)scale(0.1 -0.1)">
       <use transform="scale(0.9962640099626402)" xlink:href="#CMR17-49"/>
       <use transform="translate(45.69047711706103 0.0)scale(0.9962640099626402)" xlink:href="#CMR17-53"/>
      </g>
     </g>
    </g>
    <g id="xtick_6">
     <g id="line2d_16">
      <path clip-path="url(#p09ab0df76a)" d="M 419.870318 314.1 
L 419.870318 7.2 
" style="fill:none;stroke:#ffffff;stroke-linecap:round;"/>
     </g>
     <g id="line2d_17">
      <g>
       <use style="fill:#262626;stroke:#262626;" x="419.870318337" xlink:href="#mf387cfba4a" y="314.1"/>
      </g>
     </g>
     <g id="line2d_18">
      <g>
       <use style="fill:#262626;stroke:#262626;" x="419.870318337" xlink:href="#mf387cfba4a" y="7.2"/>
      </g>
     </g>
     <g id="text_6">
      <!-- $20$ -->
      <defs>
       <path d="M 41.703125 15.453125 
L 39.90625 15.453125 
C 38.90625 8.375 38.09375 7.171875 37.703125 6.5625 
C 37.203125 5.765625 30 5.765625 28.59375 5.765625 
L 9.40625 5.765625 
C 13 9.671875 20 16.75 28.5 24.953125 
C 34.59375 30.734375 41.703125 37.53125 41.703125 47.421875 
C 41.703125 59.21875 32.296875 66 21.796875 66 
C 10.796875 66 4.09375 56.3125 4.09375 47.34375 
C 4.09375 43.4375 7 42.9375 8.203125 42.9375 
C 9.203125 42.9375 12.203125 43.546875 12.203125 47.03125 
C 12.203125 50.109375 9.59375 51 8.203125 51 
C 7.59375 51 7 50.90625 6.59375 50.703125 
C 8.5 59.21875 14.296875 63.40625 20.40625 63.40625 
C 29.09375 63.40625 34.796875 56.515625 34.796875 47.421875 
C 34.796875 38.734375 29.703125 31.25 24 24.75 
L 4.09375 2.28125 
L 4.09375 0 
L 39.296875 0 
z
" id="CMR17-50"/>
      </defs>
      <g style="fill:#262626;" transform="translate(414.888983086 328.01849838)scale(0.1 -0.1)">
       <use transform="scale(0.9962640099626402)" xlink:href="#CMR17-50"/>
       <use transform="translate(45.69047711706103 0.0)scale(0.9962640099626402)" xlink:href="#CMR17-48"/>
      </g>
     </g>
    </g>
    <g id="xtick_7">
     <g id="line2d_19">
      <path clip-path="url(#p09ab0df76a)" d="M 494.270318 314.1 
L 494.270318 7.2 
" style="fill:none;stroke:#ffffff;stroke-linecap:round;"/>
     </g>
     <g id="line2d_20">
      <g>
       <use style="fill:#262626;stroke:#262626;" x="494.270318337" xlink:href="#mf387cfba4a" y="314.1"/>
      </g>
     </g>
     <g id="line2d_21">
      <g>
       <use style="fill:#262626;stroke:#262626;" x="494.270318337" xlink:href="#mf387cfba4a" y="7.2"/>
      </g>
     </g>
     <g id="text_7">
      <!-- $25$ -->
      <g style="fill:#262626;" transform="translate(489.288983086 328.01849838)scale(0.1 -0.1)">
       <use transform="scale(0.9962640099626402)" xlink:href="#CMR17-50"/>
       <use transform="translate(45.69047711706103 0.0)scale(0.9962640099626402)" xlink:href="#CMR17-53"/>
      </g>
     </g>
    </g>
    <g id="text_8">
     <!-- Messung -->
     <defs>
      <path d="M 49.90625 37.125 
L 45.09375 23.09375 
C 44.296875 20.5 41.59375 12.4375 41 9.25 
L 40.90625 9.25 
C 40.59375 11.25 40 13.34375 38.40625 18.421875 
C 37.5 21.40625 36.5 24.484375 35.5 27.28125 
L 20.703125 69.078125 
L 9 69.078125 
L 9 0 
L 16.796875 0 
L 16.796875 61.015625 
L 16.90625 61.015625 
C 16.90625 60.921875 17.796875 56.53125 23.90625 39.125 
L 37.09375 1.59375 
L 44.5 1.59375 
L 56.40625 34.828125 
C 57.203125 37.109375 59.703125 44.359375 60.796875 47.828125 
C 61.796875 50.796875 64.296875 58.140625 64.90625 61.015625 
L 65 61.015625 
L 65 0 
L 72.90625 0 
L 72.90625 69.078125 
L 61.296875 69.078125 
z
" id="CMSS17-77"/>
      <path d="M 39.09375 21.515625 
C 39.09375 24.84375 38.90625 31.296875 35.703125 36.640625 
C 32.203125 42.390625 26.5 44 22.203125 44 
C 11.796875 44 3 34.1875 3 21.484375 
C 3 9.09375 12.09375 -1 23.59375 -1 
C 28.09375 -1 33.59375 0.296875 38.59375 3.875 
C 38.59375 4.28125 38.40625 6.46875 38.296875 6.5625 
C 38.296875 6.765625 38 9.828125 38 10.234375 
C 33.203125 6.359375 27.703125 5.078125 23.703125 5.078125 
C 17.296875 5.078125 10.40625 10.421875 10.09375 21.515625 
z
M 10.90625 27 
C 12.203125 32.5625 16.59375 37.828125 22.203125 37.828125 
C 23.703125 37.828125 30.703125 37.828125 32.5 27 
z
" id="CMSS17-101"/>
      <path d="M 40.90625 29.328125 
C 40.90625 35.671875 39.40625 44 28.09375 44 
C 21.703125 44 17.5 40.71875 14.703125 37.328125 
L 14.703125 43.09375 
L 7.40625 43.09375 
L 7.40625 0 
L 15 0 
L 15 24.359375 
C 15 30.6875 17.40625 37.9375 24.203125 37.9375 
C 33 37.9375 33.296875 32 33.296875 28.578125 
L 33.296875 0 
L 40.90625 0 
z
" id="CMSS17-110"/>
      <path d="M 44.5 43.671875 
C 38.796875 43.671875 33.90625 42.578125 29.90625 40.6875 
C 26.59375 43.1875 23.203125 43.671875 20.90625 43.671875 
C 12.203125 43.671875 5.59375 36.625 5.59375 28.375 
C 5.59375 23.0625 8.59375 19.046875 8.796875 18.859375 
C 7 16.328125 6 13.609375 6 10.578125 
C 6 7.046875 7.40625 4.53125 8.5 3.125 
C 3.296875 -0.046875 2.59375 -4.90625 2.59375 -6.796875 
C 2.59375 -14.03125 11.703125 -20 23.40625 -20 
C 35.203125 -20 44.296875 -14.03125 44.296875 -6.6875 
C 44.296875 7 29 7 24.796875 7 
L 16.703125 7 
C 15.203125 7 11.203125 7 11.203125 12.265625 
C 11.203125 14.34375 12.09375 15.6875 12.203125 15.78125 
C 13.703125 14.6875 16.796875 13 20.90625 13 
C 29.203125 13 36.09375 19.890625 36.09375 28.359375 
C 36.09375 33.0625 33.90625 36.515625 33 37.703125 
L 33.296875 37.703125 
C 33.59375 37.703125 37.796875 38 39.296875 38 
C 42.5 38 42.796875 37.890625 45.59375 37.609375 
z
M 20.90625 18.46875 
C 17.5 18.46875 12.703125 20.53125 12.703125 28.390625 
C 12.703125 36.921875 18.203125 38.296875 20.796875 38.296875 
C 24.203125 38.296875 29 36.234375 29 28.390625 
C 29 19.84375 23.5 18.46875 20.90625 18.46875 
M 24.703125 -0.15625 
C 27.09375 -0.15625 37.203125 -0.15625 37.203125 -6.90625 
C 37.203125 -11.15625 31 -14.515625 23.5 -14.515625 
C 15.90625 -14.515625 9.703125 -11.25 9.703125 -6.796875 
C 9.703125 -6.296875 9.703125 -0.15625 16.59375 -0.15625 
z
" id="CMSS17-103"/>
      <path d="M 40.90625 42.796875 
L 33.296875 42.796875 
L 33.296875 15.1875 
C 33.296875 7.78125 27.90625 4.78125 22.203125 4.78125 
C 15.59375 4.78125 15 6.984375 15 11.078125 
L 15 42.796875 
L 7.40625 42.796875 
L 7.40625 10.59375 
C 7.40625 2.796875 10.09375 -1 17 -1 
C 20.40625 -1 28.09375 -0.203125 33.5 4.78125 
L 33.5 0 
L 40.90625 0 
z
" id="CMSS17-117"/>
      <path d="M 32.203125 40.984375 
C 26.296875 43.859375 21.703125 43.859375 18.703125 43.859375 
C 11.59375 43.859375 3.09375 41.375 3.09375 31.296875 
C 3.09375 21.234375 14.09375 19.03125 17.09375 18.421875 
C 21.703125 17.53125 26.796875 16.53125 26.796875 11.5625 
C 26.796875 5.265625 19.59375 5.265625 18.296875 5.265625 
C 14.296875 5.265625 8.796875 6.359375 3.796875 9.96875 
L 2.59375 3.28125 
C 8.296875 0 13.796875 -1 18.40625 -1 
C 30.703125 -1 33.796875 6.5 33.796875 12.203125 
C 33.796875 17.09375 31 20.390625 29.09375 21.890625 
C 25.796875 24.5 24.59375 24.796875 16.40625 26.5 
C 15 26.703125 10.09375 27.796875 10.09375 32.28125 
C 10.09375 38 16.40625 38 17.796875 38 
C 24.296875 38 28.296875 35.984375 31 34.5 
z
" id="CMSS17-115"/>
     </defs>
     <g style="fill:#262626;" transform="translate(251.237685401 342.566023408)scale(0.11 -0.11)">
      <use transform="scale(0.9962640099626402)" xlink:href="#CMSS17-77"/>
      <use transform="translate(81.67602995115972 0.0)scale(0.9962640099626402)" xlink:href="#CMSS17-101"/>
      <use transform="translate(123.31485201976963 0.0)scale(0.9962640099626402)" xlink:href="#CMSS17-115"/>
      <use transform="translate(159.228394010741 0.0)scale(0.9962640099626402)" xlink:href="#CMSS17-115"/>
      <use transform="translate(195.14193600171234 0.0)scale(0.9962640099626402)" xlink:href="#CMSS17-117"/>
      <use transform="translate(243.34687913488483 0.0)scale(0.9962640099626402)" xlink:href="#CMSS17-110"/>
      <use transform="translate(291.5518222680573 0.0)scale(0.9962640099626402)" xlink:href="#CMSS17-103"/>
     </g>
    </g>
   </g>
   <g id="matplotlib.axis_2">
    <g id="ytick_1">
     <g id="line2d_22">
      <path clip-path="url(#p09ab0df76a)" d="M 47.870318 283.41 
L 494.270318 283.41 
" style="fill:none;stroke:#ffffff;stroke-linecap:round;"/>
     </g>
     <g id="line2d_23">
      <g>
       <use style="fill:#262626;stroke:#262626;" x="47.8703183375" xlink:href="#mf387cfba4a" y="283.41"/>
      </g>
     </g>
     <g id="line2d_24">
      <g>
       <use style="fill:#262626;stroke:#262626;" x="494.270318337" xlink:href="#mf387cfba4a" y="283.41"/>
      </g>
     </g>
     <g id="text_9">
      <!-- $0.24$ -->
      <defs>
       <path d="M 18.40625 4.796875 
C 18.40625 7.6875 16 9.671875 13.59375 9.671875 
C 10.703125 9.671875 8.703125 7.28125 8.703125 4.890625 
C 8.703125 2 11.09375 0 13.5 0 
C 16.40625 0 18.40625 2.390625 18.40625 4.796875 
" id="CMMI12-58"/>
       <path d="M 33.59375 64.328125 
C 33.59375 66.40625 33.5 66.5 31.703125 66.5 
L 2 19.59375 
L 2 17 
L 27.796875 17 
L 27.796875 7.140625 
C 27.796875 3.5 27.59375 2.5 20.59375 2.5 
L 18.703125 2.5 
L 18.703125 0 
C 21.90625 0 27.296875 0 30.703125 0 
C 34.09375 0 39.5 0 42.703125 0 
L 42.703125 2.5 
L 40.796875 2.5 
C 33.796875 2.5 33.59375 3.5 33.59375 7.140625 
L 33.59375 17 
L 43.796875 17 
L 43.796875 19.59375 
L 33.59375 19.59375 
z
M 28.09375 57.765625 
L 28.09375 19.59375 
L 4 19.59375 
z
" id="CMR17-52"/>
      </defs>
      <g style="fill:#262626;" transform="translate(23.1589041096 285.900660025)scale(0.1 -0.1)">
       <use transform="scale(0.9962640099626402)" xlink:href="#CMR17-48"/>
       <use transform="translate(45.69047711706103 0.0)scale(0.9962640099626402)" xlink:href="#CMMI12-58"/>
       <use transform="translate(72.78765420688046 0.0)scale(0.9962640099626402)" xlink:href="#CMR17-50"/>
       <use transform="translate(118.47813132394148 0.0)scale(0.9962640099626402)" xlink:href="#CMR17-52"/>
      </g>
     </g>
    </g>
    <g id="ytick_2">
     <g id="line2d_25">
      <path clip-path="url(#p09ab0df76a)" d="M 47.870318 222.03 
L 494.270318 222.03 
" style="fill:none;stroke:#ffffff;stroke-linecap:round;"/>
     </g>
     <g id="line2d_26">
      <g>
       <use style="fill:#262626;stroke:#262626;" x="47.8703183375" xlink:href="#mf387cfba4a" y="222.03"/>
      </g>
     </g>
     <g id="line2d_27">
      <g>
       <use style="fill:#262626;stroke:#262626;" x="494.270318337" xlink:href="#mf387cfba4a" y="222.03"/>
      </g>
     </g>
     <g id="text_10">
      <!-- $0.26$ -->
      <defs>
       <path d="M 10.59375 34 
C 10.59375 57.65625 21.796875 63 28.296875 63 
C 30.40625 63 35.5 62.640625 37.5 59 
C 35.90625 59 32.90625 59 32.90625 55.515625 
C 32.90625 52.828125 35.09375 51.921875 36.5 51.921875 
C 37.40625 51.921875 40.09375 52.3125 40.09375 55.625 
C 40.09375 61.78125 35.09375 65.296875 28.203125 65.296875 
C 16.296875 65.296875 3.796875 52.96875 3.796875 31 
C 3.796875 3.953125 15.09375 -2 23.09375 -2 
C 32.796875 -2 42 6.671875 42 20.046875 
C 42 32.515625 33.90625 41.59375 23.703125 41.59375 
C 17.59375 41.59375 13.09375 37.609375 10.59375 30.625 
z
M 23.09375 0.390625 
C 10.796875 0.390625 10.796875 18.75 10.796875 22.4375 
C 10.796875 29.625 14.203125 40 23.5 40 
C 25.203125 40 30.09375 40 33.40625 33.125 
C 35.203125 29.21875 35.203125 25.140625 35.203125 20.140625 
C 35.203125 14.75 35.203125 10.78125 33.09375 6.78125 
C 30.90625 2.671875 27.703125 0.390625 23.09375 0.390625 
" id="CMR17-54"/>
      </defs>
      <g style="fill:#262626;" transform="translate(23.1589041096 224.520660025)scale(0.1 -0.1)">
       <use transform="scale(0.9962640099626402)" xlink:href="#CMR17-48"/>
       <use transform="translate(45.69047711706103 0.0)scale(0.9962640099626402)" xlink:href="#CMMI12-58"/>
       <use transform="translate(72.78765420688046 0.0)scale(0.9962640099626402)" xlink:href="#CMR17-50"/>
       <use transform="translate(118.47813132394148 0.0)scale(0.9962640099626402)" xlink:href="#CMR17-54"/>
      </g>
     </g>
    </g>
    <g id="ytick_3">
     <g id="line2d_28">
      <path clip-path="url(#p09ab0df76a)" d="M 47.870318 160.65 
L 494.270318 160.65 
" style="fill:none;stroke:#ffffff;stroke-linecap:round;"/>
     </g>
     <g id="line2d_29">
      <g>
       <use style="fill:#262626;stroke:#262626;" x="47.8703183375" xlink:href="#mf387cfba4a" y="160.65"/>
      </g>
     </g>
     <g id="line2d_30">
      <g>
       <use style="fill:#262626;stroke:#262626;" x="494.270318337" xlink:href="#mf387cfba4a" y="160.65"/>
      </g>
     </g>
     <g id="text_11">
      <!-- $0.28$ -->
      <defs>
       <path d="M 27.203125 35.375 
C 33.5 38.5625 39.90625 43.328125 39.90625 50.984375 
C 39.90625 60.03125 31.09375 65.296875 23 65.296875 
C 13.90625 65.296875 5.90625 58.734375 5.90625 49.6875 
C 5.90625 47.203125 6.5 42.921875 10.40625 39.140625 
C 11.40625 38.15625 15.59375 35.171875 18.296875 33.28125 
C 13.796875 30.984375 3.296875 25.53125 3.296875 14.59375 
C 3.296875 4.359375 13.09375 -2 22.796875 -2 
C 33.5 -2 42.5 5.65625 42.5 15.796875 
C 42.5 24.84375 36.40625 29.03125 32.40625 31.703125 
z
M 14.09375 44.125 
C 13.296875 44.625 9.296875 47.703125 9.296875 52.375 
C 9.296875 58.4375 15.59375 63 22.796875 63 
C 30.703125 63 36.5 57.453125 36.5 50.984375 
C 36.5 41.734375 26.09375 36.46875 25.59375 36.46875 
C 25.5 36.46875 25.40625 36.46875 24.59375 37.078125 
z
M 32.5 23.734375 
C 34 22.640625 38.796875 19.375 38.796875 13.296875 
C 38.796875 5.953125 31.40625 0.390625 23 0.390625 
C 13.90625 0.390625 7 6.84375 7 14.6875 
C 7 22.546875 13.09375 29.09375 20 32.1875 
z
" id="CMR17-56"/>
      </defs>
      <g style="fill:#262626;" transform="translate(23.1589041096 163.140660025)scale(0.1 -0.1)">
       <use transform="scale(0.9962640099626402)" xlink:href="#CMR17-48"/>
       <use transform="translate(45.69047711706103 0.0)scale(0.9962640099626402)" xlink:href="#CMMI12-58"/>
       <use transform="translate(72.78765420688046 0.0)scale(0.9962640099626402)" xlink:href="#CMR17-50"/>
       <use transform="translate(118.47813132394148 0.0)scale(0.9962640099626402)" xlink:href="#CMR17-56"/>
      </g>
     </g>
    </g>
    <g id="ytick_4">
     <g id="line2d_31">
      <path clip-path="url(#p09ab0df76a)" d="M 47.870318 99.27 
L 494.270318 99.27 
" style="fill:none;stroke:#ffffff;stroke-linecap:round;"/>
     </g>
     <g id="line2d_32">
      <g>
       <use style="fill:#262626;stroke:#262626;" x="47.8703183375" xlink:href="#mf387cfba4a" y="99.27"/>
      </g>
     </g>
     <g id="line2d_33">
      <g>
       <use style="fill:#262626;stroke:#262626;" x="494.270318337" xlink:href="#mf387cfba4a" y="99.27"/>
      </g>
     </g>
     <g id="text_12">
      <!-- $0.30$ -->
      <defs>
       <path d="M 22.09375 33.703125 
C 31 33.703125 34.90625 25.96875 34.90625 17.03125 
C 34.90625 5 28.5 0.390625 22.703125 0.390625 
C 17.40625 0.390625 8.796875 3.03125 6.09375 10.828125 
C 6.59375 10.625 7.09375 10.625 7.59375 10.625 
C 10 10.625 11.796875 12.21875 11.796875 14.8125 
C 11.796875 17.703125 9.59375 19 7.59375 19 
C 5.90625 19 3.296875 18.203125 3.296875 14.46875 
C 3.296875 5.234375 12.296875 -2 22.90625 -2 
C 34 -2 42.5 6.71875 42.5 16.953125 
C 42.5 26.671875 34.5 33.6875 25 34.796875 
C 32.59375 36.375 39.90625 43.0625 39.90625 52.015625 
C 39.90625 59.6875 32 65.296875 23 65.296875 
C 13.90625 65.296875 5.90625 59.828125 5.90625 52.015625 
C 5.90625 48.59375 8.5 48 9.796875 48 
C 11.90625 48 13.703125 49.296875 13.703125 51.890625 
C 13.703125 54.46875 11.90625 55.765625 9.796875 55.765625 
C 9.40625 55.765625 8.90625 55.765625 8.5 55.5625 
C 11.40625 61.859375 19.296875 63 22.796875 63 
C 26.296875 63 32.90625 61.328125 32.90625 51.875 
C 32.90625 49.109375 32.5 44.1875 29.09375 39.84375 
C 26.09375 36 22.703125 36 19.40625 35.59375 
C 18.90625 35.59375 16.59375 35.59375 16.203125 35.59375 
C 15.5 35.484375 15.09375 35.390625 15.09375 34.59375 
C 15.09375 33.8125 15.203125 33.703125 17.203125 33.703125 
z
" id="CMR17-51"/>
      </defs>
      <g style="fill:#262626;" transform="translate(23.1589041096 101.760660025)scale(0.1 -0.1)">
       <use transform="scale(0.9962640099626402)" xlink:href="#CMR17-48"/>
       <use transform="translate(45.69047711706103 0.0)scale(0.9962640099626402)" xlink:href="#CMMI12-58"/>
       <use transform="translate(72.78765420688046 0.0)scale(0.9962640099626402)" xlink:href="#CMR17-51"/>
       <use transform="translate(118.47813132394148 0.0)scale(0.9962640099626402)" xlink:href="#CMR17-48"/>
      </g>
     </g>
    </g>
    <g id="ytick_5">
     <g id="line2d_34">
      <path clip-path="url(#p09ab0df76a)" d="M 47.870318 37.89 
L 494.270318 37.89 
" style="fill:none;stroke:#ffffff;stroke-linecap:round;"/>
     </g>
     <g id="line2d_35">
      <g>
       <use style="fill:#262626;stroke:#262626;" x="47.8703183375" xlink:href="#mf387cfba4a" y="37.89"/>
      </g>
     </g>
     <g id="line2d_36">
      <g>
       <use style="fill:#262626;stroke:#262626;" x="494.270318337" xlink:href="#mf387cfba4a" y="37.89"/>
      </g>
     </g>
     <g id="text_13">
      <!-- $0.32$ -->
      <g style="fill:#262626;" transform="translate(23.1589041096 40.3806600249)scale(0.1 -0.1)">
       <use transform="scale(0.9962640099626402)" xlink:href="#CMR17-48"/>
       <use transform="translate(45.69047711706103 0.0)scale(0.9962640099626402)" xlink:href="#CMMI12-58"/>
       <use transform="translate(72.78765420688046 0.0)scale(0.9962640099626402)" xlink:href="#CMR17-51"/>
       <use transform="translate(118.47813132394148 0.0)scale(0.9962640099626402)" xlink:href="#CMR17-50"/>
      </g>
     </g>
    </g>
    <g id="text_14">
     <!-- x [m] -->
     <defs>
      <path d="M 24.796875 22.09375 
L 41.5 42.796875 
L 32.796875 42.796875 
L 21.296875 27.765625 
L 9.40625 42.796875 
L 0.5 42.796875 
L 17.796875 22.09375 
L 0 0 
L 8.796875 0 
L 21.296875 17.515625 
L 34.296875 0 
L 43.09375 0 
z
" id="CMSS17-120"/>
      <path d="M 25.203125 -25 
L 25.203125 -18.9375 
L 16.59375 -18.9375 
L 16.59375 68 
L 25.203125 68 
L 25.203125 74.078125 
L 9.296875 74.078125 
L 9.296875 -25 
z
" id="CMSS17-91"/>
      <path d="M 17.90625 74.078125 
L 2 74.078125 
L 2 68 
L 10.59375 68 
L 10.59375 -18.9375 
L 2 -18.9375 
L 2 -25 
L 17.90625 -25 
z
" id="CMSS17-93"/>
      <path d="M 67 29.328125 
C 67 36.0625 65.296875 44 54.09375 44 
C 46.59375 44 42.09375 39.3125 40.09375 36.421875 
C 38.296875 41.71875 34.09375 44 28.09375 44 
C 21.296875 44 17 40.125 14.703125 37.328125 
L 14.703125 43.09375 
L 7.40625 43.09375 
L 7.40625 0 
L 15 0 
L 15 24.359375 
C 15 30.296875 17.203125 37.9375 24.296875 37.9375 
C 33.40625 37.9375 33.40625 31.5 33.40625 28.578125 
L 33.40625 0 
L 41 0 
L 41 24.359375 
C 41 30.296875 43.203125 37.9375 50.296875 37.9375 
C 59.40625 37.9375 59.40625 31.5 59.40625 28.578125 
L 59.40625 0 
L 67 0 
z
" id="CMSS17-109"/>
     </defs>
     <g style="fill:#262626;" transform="translate(15.4191780822 172.522166388)rotate(-90.0)scale(0.11 -0.11)">
      <use transform="scale(0.9962640099626402)" xlink:href="#CMSS17-120"/>
      <use transform="translate(74.2292544316236 0.0)scale(0.9962640099626402)" xlink:href="#CMSS17-91"/>
      <use transform="translate(101.41469306993308 0.0)scale(0.9962640099626402)" xlink:href="#CMSS17-109"/>
      <use transform="translate(175.64394750155668 0.0)scale(0.9962640099626402)" xlink:href="#CMSS17-93"/>
     </g>
    </g>
   </g>
   <g id="PathCollection_1">
    <defs>
     <path d="M 0 2.236068 
C 0.593012 2.236068 1.161816 2.000462 1.581139 1.581139 
C 2.000462 1.161816 2.236068 0.593012 2.236068 0 
C 2.236068 -0.593012 2.000462 -1.161816 1.581139 -1.581139 
C 1.161816 -2.000462 0.593012 -2.236068 0 -2.236068 
C -0.593012 -2.236068 -1.161816 -2.000462 -1.581139 -1.581139 
C -2.000462 -1.161816 -2.236068 -0.593012 -2.236068 0 
C -2.236068 0.593012 -2.000462 1.161816 -1.581139 1.581139 
C -1.161816 2.000462 -0.593012 2.236068 0 2.236068 
z
" id="mf3ad3eaa05" style="stroke:#1a1a1a;stroke-width:0.3;"/>
    </defs>
    <g clip-path="url(#p09ab0df76a)">
     <use style="fill:#4c72b0;stroke:#1a1a1a;stroke-width:0.3;" x="137.150318337" xlink:href="#mf3ad3eaa05" y="53.235"/>
     <use style="fill:#4c72b0;stroke:#1a1a1a;stroke-width:0.3;" x="211.550318337" xlink:href="#mf3ad3eaa05" y="114.615"/>
     <use style="fill:#4c72b0;stroke:#1a1a1a;stroke-width:0.3;" x="285.950318337" xlink:href="#mf3ad3eaa05" y="160.65"/>
     <use style="fill:#4c72b0;stroke:#1a1a1a;stroke-width:0.3;" x="360.350318337" xlink:href="#mf3ad3eaa05" y="206.685"/>
     <use style="fill:#4c72b0;stroke:#1a1a1a;stroke-width:0.3;" x="434.750318337" xlink:href="#mf3ad3eaa05" y="252.72"/>
    </g>
   </g>
   <g id="line2d_37">
    <path clip-path="url(#p09ab0df76a)" d="M 122.270318 47.097 
L 125.426682 49.1802 
L 128.583046 51.2634 
L 131.739409 53.3466 
L 134.895773 55.4298 
L 138.052137 57.513 
L 141.2085 59.5962 
L 144.364864 61.6794 
L 147.521227 63.7626 
L 150.677591 65.8458 
L 153.833955 67.929 
L 156.990318 70.0122 
L 160.146682 72.0954 
L 163.303046 74.1786 
L 166.459409 76.2618 
L 169.615773 78.345 
L 172.772137 80.4282 
L 175.9285 82.5114 
L 179.084864 84.5946 
L 182.241227 86.6778 
L 185.397591 88.761 
L 188.553955 90.8442 
L 191.710318 92.9274 
L 194.866682 95.0106 
L 198.023046 97.0938 
L 201.179409 99.177 
L 204.335773 101.2602 
L 207.492137 103.3434 
L 210.6485 105.4266 
L 213.804864 107.5098 
L 216.961227 109.593 
L 220.117591 111.6762 
L 223.273955 113.7594 
L 226.430318 115.8426 
L 229.586682 117.9258 
L 232.743046 120.009 
L 235.899409 122.0922 
L 239.055773 124.1754 
L 242.212137 126.2586 
L 245.3685 128.3418 
L 248.524864 130.425 
L 251.681227 132.5082 
L 254.837591 134.5914 
L 257.993955 136.6746 
L 261.150318 138.7578 
L 264.306682 140.841 
L 267.463046 142.9242 
L 270.619409 145.0074 
L 273.775773 147.0906 
L 276.932137 149.1738 
L 280.0885 151.257 
L 283.244864 153.3402 
L 286.401227 155.4234 
L 289.557591 157.5066 
L 292.713955 159.5898 
L 295.870318 161.673 
L 299.026682 163.7562 
L 302.183046 165.8394 
L 305.339409 167.9226 
L 308.495773 170.0058 
L 311.652137 172.089 
L 314.8085 174.1722 
L 317.964864 176.2554 
L 321.121227 178.3386 
L 324.277591 180.4218 
L 327.433955 182.505 
L 330.590318 184.5882 
L 333.746682 186.6714 
L 336.903046 188.7546 
L 340.059409 190.8378 
L 343.215773 192.921 
L 346.372137 195.0042 
L 349.5285 197.0874 
L 352.684864 199.1706 
L 355.841227 201.2538 
L 358.997591 203.337 
L 362.153955 205.4202 
L 365.310318 207.5034 
L 368.466682 209.5866 
L 371.623046 211.6698 
L 374.779409 213.753 
L 377.935773 215.8362 
L 381.092137 217.9194 
L 384.2485 220.0026 
L 387.404864 222.0858 
L 390.561227 224.169 
L 393.717591 226.2522 
L 396.873955 228.3354 
L 400.030318 230.4186 
L 403.186682 232.5018 
L 406.343046 234.585 
L 409.499409 236.6682 
L 412.655773 238.7514 
L 415.812137 240.8346 
L 418.9685 242.9178 
L 422.124864 245.001 
L 425.281227 247.0842 
L 428.437591 249.1674 
L 431.593955 251.2506 
L 434.750318 253.3338 
" style="fill:none;stroke:#4c72b0;stroke-linecap:round;stroke-width:1.75;"/>
   </g>
   <g id="patch_3">
    <path d="M 494.270318 314.1 
L 494.270318 7.2 
" style="fill:none;"/>
   </g>
   <g id="patch_4">
    <path d="M 47.870318 7.2 
L 494.270318 7.2 
" style="fill:none;"/>
   </g>
   <g id="patch_5">
    <path d="M 47.870318 314.1 
L 47.870318 7.2 
" style="fill:none;"/>
   </g>
   <g id="patch_6">
    <path d="M 47.870318 314.1 
L 494.270318 314.1 
" style="fill:none;"/>
   </g>
   <g id="legend_1">
    <g id="line2d_38">
     <path d="M 62.798318 22.838 
L 82.798318 22.838 
" style="fill:none;stroke:#4c72b0;stroke-linecap:round;stroke-width:1.75;"/>
    </g>
    <g id="line2d_39"/>
    <g id="text_15">
     <!-- linearer Fit -->
     <defs>
      <path d="M 14.90625 21.296875 
C 14.90625 30.703125 21.796875 37 30.59375 37 
L 30.59375 43.578125 
C 24.203125 43.578125 18.203125 40.390625 14.59375 35.203125 
L 14.59375 43.09375 
L 7.5 43.09375 
L 7.5 0 
L 14.90625 0 
z
" id="CMSS17-114"/>
      <path d="M 16.703125 37 
L 29.703125 37 
L 29.703125 42.765625 
L 16.703125 42.765625 
L 16.703125 55 
L 9.59375 55 
L 9.59375 42.765625 
L 1.703125 42.765625 
L 1.703125 37 
L 9.40625 37 
L 9.40625 11.703125 
C 9.40625 6 10.703125 -1 17.296875 -1 
C 22.296875 -1 26.90625 0.390625 31.296875 2.6875 
L 29.703125 8.5625 
C 27.296875 6.46875 24.40625 5.265625 21.296875 5.265625 
C 16.90625 5.265625 16.703125 10.875 16.703125 13.375 
z
" id="CMSS17-116"/>
      <path d="M 45.59375 31 
L 45.59375 37.078125 
L 17.203125 37.078125 
L 17.203125 62 
L 29.40625 62 
C 30.59375 62 31.796875 62 33 62 
L 49.5 62 
L 49.5 68.359375 
L 8.796875 68.359375 
L 8.796875 -0.5 
L 17.203125 -0.5 
L 17.203125 31 
z
" id="CMSS17-70"/>
      <path d="M 37.59375 27.984375 
C 37.59375 37.375 30.90625 43.875 21.90625 43.875 
C 17.5 43.875 12.703125 43.078125 7.203125 39.890625 
L 7.796875 33.359375 
C 10.296875 35.125 14.59375 38 21.796875 38 
C 26.90625 38 30 34.0625 30 27.84375 
L 30 24 
C 14 24 4 19.34375 4 11.34375 
C 4 7.203125 6.5 -1 14.796875 -1 
C 16.296875 -1 24.40625 -1 30.203125 3.390625 
L 30.203125 -0.296875 
L 37.59375 -0.296875 
z
M 30 12.75 
C 30 10.953125 30 8.5625 27 6.78125 
C 24.40625 5.078125 21.09375 5.078125 19.703125 5.078125 
C 14.703125 5.078125 11.296875 7.984375 11.296875 11.625 
C 11.296875 18.921875 26.90625 18.921875 30 18.921875 
z
" id="CMSS17-97"/>
      <path d="M 15.296875 65.359375 
L 6.90625 65.359375 
L 6.90625 57 
L 15.296875 57 
z
M 14.796875 42.796875 
L 7.40625 42.796875 
L 7.40625 0 
L 14.796875 0 
z
" id="CMSS17-105"/>
      <path d="M 14.796875 69.078125 
L 7.40625 69.078125 
L 7.40625 0 
L 14.796875 0 
z
" id="CMSS17-108"/>
     </defs>
     <g style="fill:#262626;" transform="translate(90.7983183375 26.338)scale(0.1 -0.1)">
      <use transform="scale(0.9962640099626402)" xlink:href="#CMSS17-108"/>
      <use transform="translate(22.180723045415633 0.0)scale(0.9962640099626402)" xlink:href="#CMSS17-105"/>
      <use transform="translate(44.361446090831265 0.0)scale(0.9962640099626402)" xlink:href="#CMSS17-110"/>
      <use transform="translate(92.56638922400374 0.0)scale(0.9962640099626402)" xlink:href="#CMSS17-101"/>
      <use transform="translate(134.20521129261365 0.0)scale(0.9962640099626402)" xlink:href="#CMSS17-97"/>
      <use transform="translate(176.52467796544212 0.0)scale(0.9962640099626402)" xlink:href="#CMSS17-114"/>
      <use transform="translate(208.43445052245488 0.0)scale(0.9962640099626402)" xlink:href="#CMSS17-101"/>
      <use transform="translate(250.07327259106478 0.0)scale(0.9962640099626402)" xlink:href="#CMSS17-114"/>
      <use transform="translate(313.2121578990894 0.0)scale(0.9962640099626402)" xlink:href="#CMSS17-70"/>
      <use transform="translate(366.5017171933375 0.0)scale(0.9962640099626402)" xlink:href="#CMSS17-105"/>
      <use transform="translate(388.68244023875314 0.0)scale(0.9962640099626402)" xlink:href="#CMSS17-116"/>
     </g>
    </g>
    <g id="PathCollection_2">
     <path d="M 72.798318 39.886246 
C 73.39133 39.886246 73.960134 39.65064 74.379457 39.231317 
C 74.79878 38.811994 75.034386 38.24319 75.034386 37.650178 
C 75.034386 37.057166 74.79878 36.488362 74.379457 36.06904 
C 73.960134 35.649717 73.39133 35.41411 72.798318 35.41411 
C 72.205306 35.41411 71.636502 35.649717 71.21718 36.06904 
C 70.797857 36.488362 70.56225 37.057166 70.56225 37.650178 
C 70.56225 38.24319 70.797857 38.811994 71.21718 39.231317 
C 71.636502 39.65064 72.205306 39.886246 72.798318 39.886246 
z
" style="fill:#4c72b0;stroke:#1a1a1a;stroke-width:0.3;"/>
     <path d="M 72.798318 39.886246 
C 73.39133 39.886246 73.960134 39.65064 74.379457 39.231317 
C 74.79878 38.811994 75.034386 38.24319 75.034386 37.650178 
C 75.034386 37.057166 74.79878 36.488362 74.379457 36.06904 
C 73.960134 35.649717 73.39133 35.41411 72.798318 35.41411 
C 72.205306 35.41411 71.636502 35.649717 71.21718 36.06904 
C 70.797857 36.488362 70.56225 37.057166 70.56225 37.650178 
C 70.56225 38.24319 70.797857 38.811994 71.21718 39.231317 
C 71.636502 39.65064 72.205306 39.886246 72.798318 39.886246 
z
" style="fill:#4c72b0;stroke:#1a1a1a;stroke-width:0.3;"/>
     <path d="M 72.798318 39.886246 
C 73.39133 39.886246 73.960134 39.65064 74.379457 39.231317 
C 74.79878 38.811994 75.034386 38.24319 75.034386 37.650178 
C 75.034386 37.057166 74.79878 36.488362 74.379457 36.06904 
C 73.960134 35.649717 73.39133 35.41411 72.798318 35.41411 
C 72.205306 35.41411 71.636502 35.649717 71.21718 36.06904 
C 70.797857 36.488362 70.56225 37.057166 70.56225 37.650178 
C 70.56225 38.24319 70.797857 38.811994 71.21718 39.231317 
C 71.636502 39.65064 72.205306 39.886246 72.798318 39.886246 
z
" style="fill:#4c72b0;stroke:#1a1a1a;stroke-width:0.3;"/>
    </g>
    <g id="text_16">
     <!-- gemessener Ausschlag -->
     <defs>
      <path d="M 35.5 69 
L 26.90625 69 
L 2.59375 0 
L 10.203125 0 
L 17.203125 20 
L 44 20 
L 51.09375 0 
L 59.796875 0 
z
M 42.09375 25.578125 
L 19.09375 25.578125 
C 23.90625 39.578125 29.90625 56.984375 30.59375 61.5 
L 30.703125 61.5 
C 31.40625 57.390625 33.40625 51.390625 35.09375 46.28125 
z
" id="CMSS17-65"/>
      <path d="M 38.5 39.71875 
C 38.5 40.40625 33.90625 42.40625 32.703125 42.796875 
C 29.40625 44 25.203125 44 24.09375 44 
C 11.09375 44 3.296875 32.703125 3.296875 21.296875 
C 3.296875 9.296875 12 -1 23.703125 -1 
C 30.40625 -1 35.203125 1.1875 39.09375 3.78125 
L 38.5 10.375 
C 34.203125 7.078125 29.203125 5.265625 23.796875 5.265625 
C 16 5.265625 10.90625 12.09375 10.90625 21.390625 
C 10.90625 28.609375 14.203125 37.71875 24.203125 37.71875 
C 29.703125 37.71875 32.796875 36.609375 37.40625 33.515625 
z
" id="CMSS17-99"/>
      <path d="M 40.90625 29.328125 
C 40.90625 35.671875 39.40625 44 28.09375 44 
C 21.796875 44 17.703125 40.921875 14.796875 37.53125 
L 14.796875 69.078125 
L 7.40625 69.078125 
L 7.40625 0 
L 15 0 
L 15 24.359375 
C 15 30.6875 17.40625 37.9375 24.203125 37.9375 
C 33 37.9375 33.296875 32 33.296875 28.578125 
L 33.296875 0 
L 40.90625 0 
z
" id="CMSS17-104"/>
     </defs>
     <g style="fill:#262626;" transform="translate(90.7983183375 40.2751783303)scale(0.1 -0.1)">
      <use transform="scale(0.9962640099626402)" xlink:href="#CMSS17-103"/>
      <use transform="translate(46.84362352117061 0.0)scale(0.9962640099626402)" xlink:href="#CMSS17-101"/>
      <use transform="translate(88.48244558978053 0.0)scale(0.9962640099626402)" xlink:href="#CMSS17-109"/>
      <use transform="translate(162.7117000214041 0.0)scale(0.9962640099626402)" xlink:href="#CMSS17-101"/>
      <use transform="translate(204.35052209001404 0.0)scale(0.9962640099626402)" xlink:href="#CMSS17-115"/>
      <use transform="translate(240.26406408098538 0.0)scale(0.9962640099626402)" xlink:href="#CMSS17-115"/>
      <use transform="translate(276.17760607195675 0.0)scale(0.9962640099626402)" xlink:href="#CMSS17-101"/>
      <use transform="translate(317.81642814056664 0.0)scale(0.9962640099626402)" xlink:href="#CMSS17-110"/>
      <use transform="translate(366.02137127373913 0.0)scale(0.9962640099626402)" xlink:href="#CMSS17-101"/>
      <use transform="translate(407.66019334234903 0.0)scale(0.9962640099626402)" xlink:href="#CMSS17-114"/>
      <use transform="translate(470.79907865037364 0.0)scale(0.9962640099626402)" xlink:href="#CMSS17-65"/>
      <use transform="translate(533.0169335694272 0.0)scale(0.9962640099626402)" xlink:href="#CMSS17-117"/>
      <use transform="translate(581.2218767025997 0.0)scale(0.9962640099626402)" xlink:href="#CMSS17-115"/>
      <use transform="translate(617.1354186935711 0.0)scale(0.9962640099626402)" xlink:href="#CMSS17-115"/>
      <use transform="translate(653.0489606845424 0.0)scale(0.9962640099626402)" xlink:href="#CMSS17-99"/>
      <use transform="translate(694.6877827531523 0.0)scale(0.9962640099626402)" xlink:href="#CMSS17-104"/>
      <use transform="translate(742.8927258863248 0.0)scale(0.9962640099626402)" xlink:href="#CMSS17-108"/>
      <use transform="translate(765.0734489317405 0.0)scale(0.9962640099626402)" xlink:href="#CMSS17-97"/>
      <use transform="translate(809.9953695370875 0.0)scale(0.9962640099626402)" xlink:href="#CMSS17-103"/>
     </g>
    </g>
   </g>
  </g>
 </g>
 <defs>
  <clipPath id="p09ab0df76a">
   <rect height="306.9" width="446.4" x="47.8703183375" y="7.2"/>
  </clipPath>
 </defs>
</svg>
