<?xml version="1.0" encoding="utf-8" standalone="no"?>
<!DOCTYPE svg PUBLIC "-//W3C//DTD SVG 1.1//EN"
  "http://www.w3.org/Graphics/SVG/1.1/DTD/svg11.dtd">
<!-- Created with matplotlib (http://matplotlib.org/) -->
<svg height="356pt" version="1.1" viewBox="0 0 504 356" width="504pt" xmlns="http://www.w3.org/2000/svg" xmlns:xlink="http://www.w3.org/1999/xlink">
 <defs>
  <style type="text/css">
*{stroke-linecap:butt;stroke-linejoin:round;stroke-miterlimit:100000;}
  </style>
 </defs>
 <g id="figure_1">
  <g id="patch_1">
   <path d="M 0 356.324756 
L 504.723576 356.324756 
L 504.723576 0 
L 0 0 
z
" style="fill:#ffffff;"/>
  </g>
  <g id="axes_1">
   <g id="patch_2">
    <path d="M 46.142241 318.527838 
L 492.542241 318.527838 
L 492.542241 11.627838 
L 46.142241 11.627838 
z
" style="fill:#eaeaf2;"/>
   </g>
   <g id="matplotlib.axis_1">
    <g id="xtick_1">
     <g id="line2d_1">
      <path clip-path="url(#p169dd245e9)" d="M 46.142241 318.527838 
L 46.142241 11.627838 
" style="fill:none;stroke:#ffffff;stroke-linecap:round;"/>
     </g>
     <g id="line2d_2">
      <defs>
       <path d="M 0 0 
L 0 0 
" id="m81b1cfdf16" style="stroke:#262626;"/>
      </defs>
      <g>
       <use style="fill:#262626;stroke:#262626;" x="46.1422405238" xlink:href="#m81b1cfdf16" y="318.527838355"/>
      </g>
     </g>
     <g id="line2d_3">
      <g>
       <use style="fill:#262626;stroke:#262626;" x="46.1422405238" xlink:href="#m81b1cfdf16" y="11.6278383552"/>
      </g>
     </g>
     <g id="text_1">
      <!-- $-2$ -->
      <defs>
       <path d="M 41.703125 15.453125 
L 39.90625 15.453125 
C 38.90625 8.375 38.09375 7.171875 37.703125 6.5625 
C 37.203125 5.765625 30 5.765625 28.59375 5.765625 
L 9.40625 5.765625 
C 13 9.671875 20 16.75 28.5 24.953125 
C 34.59375 30.734375 41.703125 37.53125 41.703125 47.421875 
C 41.703125 59.21875 32.296875 66 21.796875 66 
C 10.796875 66 4.09375 56.3125 4.09375 47.34375 
C 4.09375 43.4375 7 42.9375 8.203125 42.9375 
C 9.203125 42.9375 12.203125 43.546875 12.203125 47.03125 
C 12.203125 50.109375 9.59375 51 8.203125 51 
C 7.59375 51 7 50.90625 6.59375 50.703125 
C 8.5 59.21875 14.296875 63.40625 20.40625 63.40625 
C 29.09375 63.40625 34.796875 56.515625 34.796875 47.421875 
C 34.796875 38.734375 29.703125 31.25 24 24.75 
L 4.09375 2.28125 
L 4.09375 0 
L 39.296875 0 
z
" id="CMR17-50"/>
       <path d="M 65.90625 23 
C 67.59375 23 69.40625 23 69.40625 25 
C 69.40625 27 67.59375 27 65.90625 27 
L 11.796875 27 
C 10.09375 27 8.296875 27 8.296875 25 
C 8.296875 23 10.09375 23 11.796875 23 
z
" id="CMSY10-0"/>
      </defs>
      <g style="fill:#262626;" transform="translate(39.7772010357 332.446336735)scale(0.1 -0.1)">
       <use transform="scale(0.9962640099626402)" xlink:href="#CMSY10-0"/>
       <use transform="translate(77.4874676506071 0.0)scale(0.9962640099626402)" xlink:href="#CMR17-50"/>
      </g>
     </g>
    </g>
    <g id="xtick_2">
     <g id="line2d_4">
      <path clip-path="url(#p169dd245e9)" d="M 120.542241 318.527838 
L 120.542241 11.627838 
" style="fill:none;stroke:#ffffff;stroke-linecap:round;"/>
     </g>
     <g id="line2d_5">
      <g>
       <use style="fill:#262626;stroke:#262626;" x="120.542240524" xlink:href="#m81b1cfdf16" y="318.527838355"/>
      </g>
     </g>
     <g id="line2d_6">
      <g>
       <use style="fill:#262626;stroke:#262626;" x="120.542240524" xlink:href="#m81b1cfdf16" y="11.6278383552"/>
      </g>
     </g>
     <g id="text_2">
      <!-- $0$ -->
      <defs>
       <path d="M 42 31.640625 
C 42 37.75 41.90625 48.125 37.703125 56.109375 
C 34 63.109375 28.09375 65.59375 22.90625 65.59375 
C 18.09375 65.59375 12 63.40625 8.203125 56.203125 
C 4.203125 48.71875 3.796875 39.4375 3.796875 31.640625 
C 3.796875 25.953125 3.90625 17.28125 7 9.671875 
C 11.296875 -0.609375 19 -2 22.90625 -2 
C 27.5 -2 34.5 -0.109375 38.59375 9.375 
C 41.59375 16.28125 42 24.359375 42 31.640625 
M 22.90625 -0.40625 
C 16.5 -0.40625 12.703125 5.078125 11.296875 12.6875 
C 10.203125 18.5625 10.203125 27.15625 10.203125 32.75 
C 10.203125 40.4375 10.203125 46.828125 11.5 52.921875 
C 13.40625 61.390625 19 64 22.90625 64 
C 27 64 32.296875 61.296875 34.203125 53.125 
C 35.5 47.4375 35.59375 40.734375 35.59375 32.75 
C 35.59375 26.25 35.59375 18.265625 34.40625 12.375 
C 32.296875 1.484375 26.40625 -0.40625 22.90625 -0.40625 
" id="CMR17-48"/>
      </defs>
      <g style="fill:#262626;" transform="translate(118.051572898 332.446336735)scale(0.1 -0.1)">
       <use transform="scale(0.9962640099626402)" xlink:href="#CMR17-48"/>
      </g>
     </g>
    </g>
    <g id="xtick_3">
     <g id="line2d_7">
      <path clip-path="url(#p169dd245e9)" d="M 194.942241 318.527838 
L 194.942241 11.627838 
" style="fill:none;stroke:#ffffff;stroke-linecap:round;"/>
     </g>
     <g id="line2d_8">
      <g>
       <use style="fill:#262626;stroke:#262626;" x="194.942240524" xlink:href="#m81b1cfdf16" y="318.527838355"/>
      </g>
     </g>
     <g id="line2d_9">
      <g>
       <use style="fill:#262626;stroke:#262626;" x="194.942240524" xlink:href="#m81b1cfdf16" y="11.6278383552"/>
      </g>
     </g>
     <g id="text_3">
      <!-- $2$ -->
      <g style="fill:#262626;" transform="translate(192.451572898 332.446336735)scale(0.1 -0.1)">
       <use transform="scale(0.9962640099626402)" xlink:href="#CMR17-50"/>
      </g>
     </g>
    </g>
    <g id="xtick_4">
     <g id="line2d_10">
      <path clip-path="url(#p169dd245e9)" d="M 269.342241 318.527838 
L 269.342241 11.627838 
" style="fill:none;stroke:#ffffff;stroke-linecap:round;"/>
     </g>
     <g id="line2d_11">
      <g>
       <use style="fill:#262626;stroke:#262626;" x="269.342240524" xlink:href="#m81b1cfdf16" y="318.527838355"/>
      </g>
     </g>
     <g id="line2d_12">
      <g>
       <use style="fill:#262626;stroke:#262626;" x="269.342240524" xlink:href="#m81b1cfdf16" y="11.6278383552"/>
      </g>
     </g>
     <g id="text_4">
      <!-- $4$ -->
      <defs>
       <path d="M 33.59375 64.328125 
C 33.59375 66.40625 33.5 66.5 31.703125 66.5 
L 2 19.59375 
L 2 17 
L 27.796875 17 
L 27.796875 7.140625 
C 27.796875 3.5 27.59375 2.5 20.59375 2.5 
L 18.703125 2.5 
L 18.703125 0 
C 21.90625 0 27.296875 0 30.703125 0 
C 34.09375 0 39.5 0 42.703125 0 
L 42.703125 2.5 
L 40.796875 2.5 
C 33.796875 2.5 33.59375 3.5 33.59375 7.140625 
L 33.59375 17 
L 43.796875 17 
L 43.796875 19.59375 
L 33.59375 19.59375 
z
M 28.09375 57.765625 
L 28.09375 19.59375 
L 4 19.59375 
z
" id="CMR17-52"/>
      </defs>
      <g style="fill:#262626;" transform="translate(266.851572898 332.446336735)scale(0.1 -0.1)">
       <use transform="scale(0.9962640099626402)" xlink:href="#CMR17-52"/>
      </g>
     </g>
    </g>
    <g id="xtick_5">
     <g id="line2d_13">
      <path clip-path="url(#p169dd245e9)" d="M 343.742241 318.527838 
L 343.742241 11.627838 
" style="fill:none;stroke:#ffffff;stroke-linecap:round;"/>
     </g>
     <g id="line2d_14">
      <g>
       <use style="fill:#262626;stroke:#262626;" x="343.742240524" xlink:href="#m81b1cfdf16" y="318.527838355"/>
      </g>
     </g>
     <g id="line2d_15">
      <g>
       <use style="fill:#262626;stroke:#262626;" x="343.742240524" xlink:href="#m81b1cfdf16" y="11.6278383552"/>
      </g>
     </g>
     <g id="text_5">
      <!-- $6$ -->
      <defs>
       <path d="M 10.59375 34 
C 10.59375 57.65625 21.796875 63 28.296875 63 
C 30.40625 63 35.5 62.640625 37.5 59 
C 35.90625 59 32.90625 59 32.90625 55.515625 
C 32.90625 52.828125 35.09375 51.921875 36.5 51.921875 
C 37.40625 51.921875 40.09375 52.3125 40.09375 55.625 
C 40.09375 61.78125 35.09375 65.296875 28.203125 65.296875 
C 16.296875 65.296875 3.796875 52.96875 3.796875 31 
C 3.796875 3.953125 15.09375 -2 23.09375 -2 
C 32.796875 -2 42 6.671875 42 20.046875 
C 42 32.515625 33.90625 41.59375 23.703125 41.59375 
C 17.59375 41.59375 13.09375 37.609375 10.59375 30.625 
z
M 23.09375 0.390625 
C 10.796875 0.390625 10.796875 18.75 10.796875 22.4375 
C 10.796875 29.625 14.203125 40 23.5 40 
C 25.203125 40 30.09375 40 33.40625 33.125 
C 35.203125 29.21875 35.203125 25.140625 35.203125 20.140625 
C 35.203125 14.75 35.203125 10.78125 33.09375 6.78125 
C 30.90625 2.671875 27.703125 0.390625 23.09375 0.390625 
" id="CMR17-54"/>
      </defs>
      <g style="fill:#262626;" transform="translate(341.251572898 332.446336735)scale(0.1 -0.1)">
       <use transform="scale(0.9962640099626402)" xlink:href="#CMR17-54"/>
      </g>
     </g>
    </g>
    <g id="xtick_6">
     <g id="line2d_16">
      <path clip-path="url(#p169dd245e9)" d="M 418.142241 318.527838 
L 418.142241 11.627838 
" style="fill:none;stroke:#ffffff;stroke-linecap:round;"/>
     </g>
     <g id="line2d_17">
      <g>
       <use style="fill:#262626;stroke:#262626;" x="418.142240524" xlink:href="#m81b1cfdf16" y="318.527838355"/>
      </g>
     </g>
     <g id="line2d_18">
      <g>
       <use style="fill:#262626;stroke:#262626;" x="418.142240524" xlink:href="#m81b1cfdf16" y="11.6278383552"/>
      </g>
     </g>
     <g id="text_6">
      <!-- $8$ -->
      <defs>
       <path d="M 27.203125 35.375 
C 33.5 38.5625 39.90625 43.328125 39.90625 50.984375 
C 39.90625 60.03125 31.09375 65.296875 23 65.296875 
C 13.90625 65.296875 5.90625 58.734375 5.90625 49.6875 
C 5.90625 47.203125 6.5 42.921875 10.40625 39.140625 
C 11.40625 38.15625 15.59375 35.171875 18.296875 33.28125 
C 13.796875 30.984375 3.296875 25.53125 3.296875 14.59375 
C 3.296875 4.359375 13.09375 -2 22.796875 -2 
C 33.5 -2 42.5 5.65625 42.5 15.796875 
C 42.5 24.84375 36.40625 29.03125 32.40625 31.703125 
z
M 14.09375 44.125 
C 13.296875 44.625 9.296875 47.703125 9.296875 52.375 
C 9.296875 58.4375 15.59375 63 22.796875 63 
C 30.703125 63 36.5 57.453125 36.5 50.984375 
C 36.5 41.734375 26.09375 36.46875 25.59375 36.46875 
C 25.5 36.46875 25.40625 36.46875 24.59375 37.078125 
z
M 32.5 23.734375 
C 34 22.640625 38.796875 19.375 38.796875 13.296875 
C 38.796875 5.953125 31.40625 0.390625 23 0.390625 
C 13.90625 0.390625 7 6.84375 7 14.6875 
C 7 22.546875 13.09375 29.09375 20 32.1875 
z
" id="CMR17-56"/>
      </defs>
      <g style="fill:#262626;" transform="translate(415.651572898 332.446336735)scale(0.1 -0.1)">
       <use transform="scale(0.9962640099626402)" xlink:href="#CMR17-56"/>
      </g>
     </g>
    </g>
    <g id="xtick_7">
     <g id="line2d_19">
      <path clip-path="url(#p169dd245e9)" d="M 492.542241 318.527838 
L 492.542241 11.627838 
" style="fill:none;stroke:#ffffff;stroke-linecap:round;"/>
     </g>
     <g id="line2d_20">
      <g>
       <use style="fill:#262626;stroke:#262626;" x="492.542240524" xlink:href="#m81b1cfdf16" y="318.527838355"/>
      </g>
     </g>
     <g id="line2d_21">
      <g>
       <use style="fill:#262626;stroke:#262626;" x="492.542240524" xlink:href="#m81b1cfdf16" y="11.6278383552"/>
      </g>
     </g>
     <g id="text_7">
      <!-- $10$ -->
      <defs>
       <path d="M 26.59375 63.3125 
C 26.59375 65.40625 26.5 65.5 25.09375 65.5 
C 21.203125 61.1875 15.296875 59.796875 9.703125 59.796875 
C 9.40625 59.796875 8.90625 59.796875 8.796875 59.609375 
C 8.703125 59.390625 8.703125 59.171875 8.703125 57 
C 11.796875 57 17 57.59375 21 59.984375 
L 21 7.203125 
C 21 3.6875 20.796875 2.5 12.203125 2.5 
L 9.203125 2.5 
L 9.203125 0 
C 14 0 19 0 23.796875 0 
C 28.59375 0 33.59375 0 38.40625 0 
L 38.40625 2.5 
L 35.40625 2.5 
C 26.796875 2.5 26.59375 3.59375 26.59375 7.15625 
z
" id="CMR17-49"/>
      </defs>
      <g style="fill:#262626;" transform="translate(487.560905272 332.446336735)scale(0.1 -0.1)">
       <use transform="scale(0.9962640099626402)" xlink:href="#CMR17-49"/>
       <use transform="translate(45.69047711706103 0.0)scale(0.9962640099626402)" xlink:href="#CMR17-48"/>
      </g>
     </g>
    </g>
    <g id="text_8">
     <!-- Messung -->
     <defs>
      <path d="M 49.90625 37.125 
L 45.09375 23.09375 
C 44.296875 20.5 41.59375 12.4375 41 9.25 
L 40.90625 9.25 
C 40.59375 11.25 40 13.34375 38.40625 18.421875 
C 37.5 21.40625 36.5 24.484375 35.5 27.28125 
L 20.703125 69.078125 
L 9 69.078125 
L 9 0 
L 16.796875 0 
L 16.796875 61.015625 
L 16.90625 61.015625 
C 16.90625 60.921875 17.796875 56.53125 23.90625 39.125 
L 37.09375 1.59375 
L 44.5 1.59375 
L 56.40625 34.828125 
C 57.203125 37.109375 59.703125 44.359375 60.796875 47.828125 
C 61.796875 50.796875 64.296875 58.140625 64.90625 61.015625 
L 65 61.015625 
L 65 0 
L 72.90625 0 
L 72.90625 69.078125 
L 61.296875 69.078125 
z
" id="CMSS17-77"/>
      <path d="M 39.09375 21.515625 
C 39.09375 24.84375 38.90625 31.296875 35.703125 36.640625 
C 32.203125 42.390625 26.5 44 22.203125 44 
C 11.796875 44 3 34.1875 3 21.484375 
C 3 9.09375 12.09375 -1 23.59375 -1 
C 28.09375 -1 33.59375 0.296875 38.59375 3.875 
C 38.59375 4.28125 38.40625 6.46875 38.296875 6.5625 
C 38.296875 6.765625 38 9.828125 38 10.234375 
C 33.203125 6.359375 27.703125 5.078125 23.703125 5.078125 
C 17.296875 5.078125 10.40625 10.421875 10.09375 21.515625 
z
M 10.90625 27 
C 12.203125 32.5625 16.59375 37.828125 22.203125 37.828125 
C 23.703125 37.828125 30.703125 37.828125 32.5 27 
z
" id="CMSS17-101"/>
      <path d="M 40.90625 29.328125 
C 40.90625 35.671875 39.40625 44 28.09375 44 
C 21.703125 44 17.5 40.71875 14.703125 37.328125 
L 14.703125 43.09375 
L 7.40625 43.09375 
L 7.40625 0 
L 15 0 
L 15 24.359375 
C 15 30.6875 17.40625 37.9375 24.203125 37.9375 
C 33 37.9375 33.296875 32 33.296875 28.578125 
L 33.296875 0 
L 40.90625 0 
z
" id="CMSS17-110"/>
      <path d="M 44.5 43.671875 
C 38.796875 43.671875 33.90625 42.578125 29.90625 40.6875 
C 26.59375 43.1875 23.203125 43.671875 20.90625 43.671875 
C 12.203125 43.671875 5.59375 36.625 5.59375 28.375 
C 5.59375 23.0625 8.59375 19.046875 8.796875 18.859375 
C 7 16.328125 6 13.609375 6 10.578125 
C 6 7.046875 7.40625 4.53125 8.5 3.125 
C 3.296875 -0.046875 2.59375 -4.90625 2.59375 -6.796875 
C 2.59375 -14.03125 11.703125 -20 23.40625 -20 
C 35.203125 -20 44.296875 -14.03125 44.296875 -6.6875 
C 44.296875 7 29 7 24.796875 7 
L 16.703125 7 
C 15.203125 7 11.203125 7 11.203125 12.265625 
C 11.203125 14.34375 12.09375 15.6875 12.203125 15.78125 
C 13.703125 14.6875 16.796875 13 20.90625 13 
C 29.203125 13 36.09375 19.890625 36.09375 28.359375 
C 36.09375 33.0625 33.90625 36.515625 33 37.703125 
L 33.296875 37.703125 
C 33.59375 37.703125 37.796875 38 39.296875 38 
C 42.5 38 42.796875 37.890625 45.59375 37.609375 
z
M 20.90625 18.46875 
C 17.5 18.46875 12.703125 20.53125 12.703125 28.390625 
C 12.703125 36.921875 18.203125 38.296875 20.796875 38.296875 
C 24.203125 38.296875 29 36.234375 29 28.390625 
C 29 19.84375 23.5 18.46875 20.90625 18.46875 
M 24.703125 -0.15625 
C 27.09375 -0.15625 37.203125 -0.15625 37.203125 -6.90625 
C 37.203125 -11.15625 31 -14.515625 23.5 -14.515625 
C 15.90625 -14.515625 9.703125 -11.25 9.703125 -6.796875 
C 9.703125 -6.296875 9.703125 -0.15625 16.59375 -0.15625 
z
" id="CMSS17-103"/>
      <path d="M 40.90625 42.796875 
L 33.296875 42.796875 
L 33.296875 15.1875 
C 33.296875 7.78125 27.90625 4.78125 22.203125 4.78125 
C 15.59375 4.78125 15 6.984375 15 11.078125 
L 15 42.796875 
L 7.40625 42.796875 
L 7.40625 10.59375 
C 7.40625 2.796875 10.09375 -1 17 -1 
C 20.40625 -1 28.09375 -0.203125 33.5 4.78125 
L 33.5 0 
L 40.90625 0 
z
" id="CMSS17-117"/>
      <path d="M 32.203125 40.984375 
C 26.296875 43.859375 21.703125 43.859375 18.703125 43.859375 
C 11.59375 43.859375 3.09375 41.375 3.09375 31.296875 
C 3.09375 21.234375 14.09375 19.03125 17.09375 18.421875 
C 21.703125 17.53125 26.796875 16.53125 26.796875 11.5625 
C 26.796875 5.265625 19.59375 5.265625 18.296875 5.265625 
C 14.296875 5.265625 8.796875 6.359375 3.796875 9.96875 
L 2.59375 3.28125 
C 8.296875 0 13.796875 -1 18.40625 -1 
C 30.703125 -1 33.796875 6.5 33.796875 12.203125 
C 33.796875 17.09375 31 20.390625 29.09375 21.890625 
C 25.796875 24.5 24.59375 24.796875 16.40625 26.5 
C 15 26.703125 10.09375 27.796875 10.09375 32.28125 
C 10.09375 38 16.40625 38 17.796875 38 
C 24.296875 38 28.296875 35.984375 31 34.5 
z
" id="CMSS17-115"/>
     </defs>
     <g style="fill:#262626;" transform="translate(249.509607587 346.993861764)scale(0.11 -0.11)">
      <use transform="scale(0.9962640099626402)" xlink:href="#CMSS17-77"/>
      <use transform="translate(81.67602995115972 0.0)scale(0.9962640099626402)" xlink:href="#CMSS17-101"/>
      <use transform="translate(123.31485201976963 0.0)scale(0.9962640099626402)" xlink:href="#CMSS17-115"/>
      <use transform="translate(159.228394010741 0.0)scale(0.9962640099626402)" xlink:href="#CMSS17-115"/>
      <use transform="translate(195.14193600171234 0.0)scale(0.9962640099626402)" xlink:href="#CMSS17-117"/>
      <use transform="translate(243.34687913488483 0.0)scale(0.9962640099626402)" xlink:href="#CMSS17-110"/>
      <use transform="translate(291.5518222680573 0.0)scale(0.9962640099626402)" xlink:href="#CMSS17-103"/>
     </g>
    </g>
   </g>
   <g id="matplotlib.axis_2">
    <g id="ytick_1">
     <g id="line2d_22">
      <path clip-path="url(#p169dd245e9)" d="M 46.142241 318.527838 
L 492.542241 318.527838 
" style="fill:none;stroke:#ffffff;stroke-linecap:round;"/>
     </g>
     <g id="line2d_23">
      <g>
       <use style="fill:#262626;stroke:#262626;" x="46.1422405238" xlink:href="#m81b1cfdf16" y="318.527838355"/>
      </g>
     </g>
     <g id="line2d_24">
      <g>
       <use style="fill:#262626;stroke:#262626;" x="492.542240524" xlink:href="#m81b1cfdf16" y="318.527838355"/>
      </g>
     </g>
     <g id="text_9">
      <!-- $150$ -->
      <defs>
       <path d="M 11.40625 57.6875 
C 12.40625 57.28125 16.5 56 20.703125 56 
C 30 56 35.09375 61.015625 38 63.921875 
C 38 64.734375 38 65.25 37.40625 65.25 
C 37.296875 65.25 37.09375 65.25 36.296875 64.828125 
C 32.796875 63.3125 28.703125 62.078125 23.703125 62.078125 
C 20.703125 62.078125 16.203125 62.5 11.296875 64.734375 
C 10.203125 65.25 10 65.25 9.90625 65.25 
C 9.40625 65.25 9.296875 65.140625 9.296875 63.15625 
L 9.296875 34.28125 
C 9.296875 32.5 9.296875 32 10.296875 32 
C 10.796875 32 11 32.203125 11.5 32.90625 
C 14.703125 37.484375 19.09375 39.40625 24.09375 39.40625 
C 27.59375 39.40625 35.09375 37.21875 35.09375 20.140625 
C 35.09375 16.953125 35.09375 11.171875 32.09375 6.578125 
C 29.59375 2.484375 25.703125 0.390625 21.40625 0.390625 
C 14.796875 0.390625 8.09375 5 6.296875 12.71875 
C 6.703125 12.609375 7.5 12.421875 7.90625 12.421875 
C 9.203125 12.421875 11.703125 13.125 11.703125 16.21875 
C 11.703125 18.90625 9.796875 20 7.90625 20 
C 5.59375 20 4.09375 18.59375 4.09375 15.796875 
C 4.09375 7.09375 11 -2 21.59375 -2 
C 31.90625 -2 41.703125 6.875 41.703125 19.75 
C 41.703125 31.71875 33.90625 41 24.203125 41 
C 19.09375 41 14.796875 39.09375 11.40625 35.453125 
z
" id="CMR17-53"/>
      </defs>
      <g style="fill:#262626;" transform="translate(24.198234769 321.01849838)scale(0.1 -0.1)">
       <use transform="scale(0.9962640099626402)" xlink:href="#CMR17-49"/>
       <use transform="translate(45.69047711706103 0.0)scale(0.9962640099626402)" xlink:href="#CMR17-53"/>
       <use transform="translate(91.38095423412206 0.0)scale(0.9962640099626402)" xlink:href="#CMR17-48"/>
      </g>
     </g>
    </g>
    <g id="ytick_2">
     <g id="line2d_25">
      <path clip-path="url(#p169dd245e9)" d="M 46.142241 257.147838 
L 492.542241 257.147838 
" style="fill:none;stroke:#ffffff;stroke-linecap:round;"/>
     </g>
     <g id="line2d_26">
      <g>
       <use style="fill:#262626;stroke:#262626;" x="46.1422405238" xlink:href="#m81b1cfdf16" y="257.147838355"/>
      </g>
     </g>
     <g id="line2d_27">
      <g>
       <use style="fill:#262626;stroke:#262626;" x="492.542240524" xlink:href="#m81b1cfdf16" y="257.147838355"/>
      </g>
     </g>
     <g id="text_10">
      <!-- $152$ -->
      <g style="fill:#262626;" transform="translate(24.198234769 259.63849838)scale(0.1 -0.1)">
       <use transform="scale(0.9962640099626402)" xlink:href="#CMR17-49"/>
       <use transform="translate(45.69047711706103 0.0)scale(0.9962640099626402)" xlink:href="#CMR17-53"/>
       <use transform="translate(91.38095423412206 0.0)scale(0.9962640099626402)" xlink:href="#CMR17-50"/>
      </g>
     </g>
    </g>
    <g id="ytick_3">
     <g id="line2d_28">
      <path clip-path="url(#p169dd245e9)" d="M 46.142241 195.767838 
L 492.542241 195.767838 
" style="fill:none;stroke:#ffffff;stroke-linecap:round;"/>
     </g>
     <g id="line2d_29">
      <g>
       <use style="fill:#262626;stroke:#262626;" x="46.1422405238" xlink:href="#m81b1cfdf16" y="195.767838355"/>
      </g>
     </g>
     <g id="line2d_30">
      <g>
       <use style="fill:#262626;stroke:#262626;" x="492.542240524" xlink:href="#m81b1cfdf16" y="195.767838355"/>
      </g>
     </g>
     <g id="text_11">
      <!-- $154$ -->
      <g style="fill:#262626;" transform="translate(24.198234769 198.25849838)scale(0.1 -0.1)">
       <use transform="scale(0.9962640099626402)" xlink:href="#CMR17-49"/>
       <use transform="translate(45.69047711706103 0.0)scale(0.9962640099626402)" xlink:href="#CMR17-53"/>
       <use transform="translate(91.38095423412206 0.0)scale(0.9962640099626402)" xlink:href="#CMR17-52"/>
      </g>
     </g>
    </g>
    <g id="ytick_4">
     <g id="line2d_31">
      <path clip-path="url(#p169dd245e9)" d="M 46.142241 134.387838 
L 492.542241 134.387838 
" style="fill:none;stroke:#ffffff;stroke-linecap:round;"/>
     </g>
     <g id="line2d_32">
      <g>
       <use style="fill:#262626;stroke:#262626;" x="46.1422405238" xlink:href="#m81b1cfdf16" y="134.387838355"/>
      </g>
     </g>
     <g id="line2d_33">
      <g>
       <use style="fill:#262626;stroke:#262626;" x="492.542240524" xlink:href="#m81b1cfdf16" y="134.387838355"/>
      </g>
     </g>
     <g id="text_12">
      <!-- $156$ -->
      <g style="fill:#262626;" transform="translate(24.198234769 136.87849838)scale(0.1 -0.1)">
       <use transform="scale(0.9962640099626402)" xlink:href="#CMR17-49"/>
       <use transform="translate(45.69047711706103 0.0)scale(0.9962640099626402)" xlink:href="#CMR17-53"/>
       <use transform="translate(91.38095423412206 0.0)scale(0.9962640099626402)" xlink:href="#CMR17-54"/>
      </g>
     </g>
    </g>
    <g id="ytick_5">
     <g id="line2d_34">
      <path clip-path="url(#p169dd245e9)" d="M 46.142241 73.007838 
L 492.542241 73.007838 
" style="fill:none;stroke:#ffffff;stroke-linecap:round;"/>
     </g>
     <g id="line2d_35">
      <g>
       <use style="fill:#262626;stroke:#262626;" x="46.1422405238" xlink:href="#m81b1cfdf16" y="73.0078383552"/>
      </g>
     </g>
     <g id="line2d_36">
      <g>
       <use style="fill:#262626;stroke:#262626;" x="492.542240524" xlink:href="#m81b1cfdf16" y="73.0078383552"/>
      </g>
     </g>
     <g id="text_13">
      <!-- $158$ -->
      <g style="fill:#262626;" transform="translate(24.198234769 75.4984983801)scale(0.1 -0.1)">
       <use transform="scale(0.9962640099626402)" xlink:href="#CMR17-49"/>
       <use transform="translate(45.69047711706103 0.0)scale(0.9962640099626402)" xlink:href="#CMR17-53"/>
       <use transform="translate(91.38095423412206 0.0)scale(0.9962640099626402)" xlink:href="#CMR17-56"/>
      </g>
     </g>
    </g>
    <g id="ytick_6">
     <g id="line2d_37">
      <path clip-path="url(#p169dd245e9)" d="M 46.142241 11.627838 
L 492.542241 11.627838 
" style="fill:none;stroke:#ffffff;stroke-linecap:round;"/>
     </g>
     <g id="line2d_38">
      <g>
       <use style="fill:#262626;stroke:#262626;" x="46.1422405238" xlink:href="#m81b1cfdf16" y="11.6278383552"/>
      </g>
     </g>
     <g id="line2d_39">
      <g>
       <use style="fill:#262626;stroke:#262626;" x="492.542240524" xlink:href="#m81b1cfdf16" y="11.6278383552"/>
      </g>
     </g>
     <g id="text_14">
      <!-- $160$ -->
      <g style="fill:#262626;" transform="translate(24.198234769 14.1184983801)scale(0.1 -0.1)">
       <use transform="scale(0.9962640099626402)" xlink:href="#CMR17-49"/>
       <use transform="translate(45.69047711706103 0.0)scale(0.9962640099626402)" xlink:href="#CMR17-54"/>
       <use transform="translate(91.38095423412206 0.0)scale(0.9962640099626402)" xlink:href="#CMR17-48"/>
      </g>
     </g>
    </g>
    <g id="text_15">
     <!-- $v [\frac{m}{s}]$ -->
     <defs>
      <path d="M 20.59375 29.234375 
C 20.796875 29.84375 23.296875 34.828125 27 38.015625 
C 29.59375 40.40625 33 42.015625 36.90625 42.015625 
C 40.90625 42.015625 42.296875 39.015625 42.296875 35.03125 
C 42.296875 34.421875 42.296875 32.4375 41.09375 27.734375 
L 38.59375 17.46875 
C 37.796875 14.46875 35.90625 7.078125 35.703125 5.984375 
C 35.296875 4.484375 34.703125 1.890625 34.703125 1.5 
C 34.703125 0.09375 35.796875 -1 37.296875 -1 
C 40.296875 -1 40.796875 1.296875 41.703125 4.890625 
L 47.703125 28.734375 
C 47.90625 29.53125 53.09375 42.015625 64.09375 42.015625 
C 68.09375 42.015625 69.5 39.015625 69.5 35.03125 
C 69.5 29.4375 65.59375 18.5625 63.40625 12.578125 
C 62.5 10.171875 62 8.875 62 7.078125 
C 62 2.59375 65.09375 -1 69.90625 -1 
C 79.203125 -1 82.703125 13.671875 82.703125 14.265625 
C 82.703125 14.765625 82.296875 15.171875 81.703125 15.171875 
C 80.796875 15.171875 80.703125 14.875 80.203125 13.171875 
C 77.90625 5.1875 74.203125 1 70.203125 1 
C 69.203125 1 67.59375 1 67.59375 4.203125 
C 67.59375 6.8125 68.796875 10 69.203125 11.09375 
C 71 15.90625 75.5 27.703125 75.5 33.515625 
C 75.5 39.5 72 44 64.40625 44 
C 57.703125 44 52.296875 40.21875 48.296875 34.328125 
C 48 39.71875 44.703125 44 37.203125 44 
C 28.296875 44 23.59375 37.734375 21.796875 35.234375 
C 21.5 40.90625 17.40625 44 13 44 
C 10.09375 44 7.796875 42.609375 5.90625 38.8125 
C 4.09375 35.21875 2.703125 29.140625 2.703125 28.734375 
C 2.703125 28.34375 3.09375 27.84375 3.796875 27.84375 
C 4.59375 27.84375 4.703125 27.9375 5.296875 30.234375 
C 6.796875 36.125 8.703125 42.015625 12.703125 42.015625 
C 15 42.015625 15.796875 40.40625 15.796875 37.421875 
C 15.796875 35.21875 14.796875 31.328125 14.09375 28.234375 
L 11.296875 17.46875 
C 10.90625 15.5625 9.796875 11.078125 9.296875 9.28125 
C 8.59375 6.6875 7.5 2 7.5 1.5 
C 7.5 0.09375 8.59375 -1 10.09375 -1 
C 11.296875 -1 12.703125 -0.40625 13.5 1.09375 
C 13.703125 1.59375 14.59375 5.09375 15.09375 7.078125 
L 17.296875 16.0625 
z
" id="CMMI12-109"/>
      <path d="M 45.703125 37.328125 
C 45.703125 43.609375 42.5 44 41.703125 44 
C 39.296875 44 37.09375 41.609375 37.09375 39.609375 
C 37.09375 38.421875 37.796875 37.71875 38.203125 37.328125 
C 39.203125 36.421875 41.796875 33.734375 41.796875 28.546875 
C 41.796875 24.34375 35.796875 1 23.796875 1 
C 17.703125 1 16.5 6.09375 16.5 9.78125 
C 16.5 14.765625 18.796875 21.75 21.5 28.9375 
C 23.09375 33.03125 23.5 34.03125 23.5 36.015625 
C 23.5 40.21875 20.5 44 15.59375 44 
C 6.40625 44 2.703125 29.53125 2.703125 28.734375 
C 2.703125 28.34375 3.09375 27.84375 3.796875 27.84375 
C 4.703125 27.84375 4.796875 28.234375 5.203125 29.640625 
C 7.59375 38.21875 11.5 42.015625 15.296875 42.015625 
C 16.203125 42.015625 17.90625 42.015625 17.90625 38.71875 
C 17.90625 36.125 16.796875 33.234375 15.296875 29.4375 
C 10.5 16.671875 10.5 13.578125 10.5 11.171875 
C 10.5 8.984375 10.796875 4.890625 13.90625 2.09375 
C 17.5 -1 22.5 -1 23.40625 -1 
C 40 -1 45.703125 31.625 45.703125 37.328125 
" id="CMMI12-118"/>
      <path d="M 23.5 -25 
L 23.5 -21.515625 
L 14.09375 -21.515625 
L 14.09375 71 
L 23.5 71 
L 23.5 74.484375 
L 10.59375 74.484375 
L 10.59375 -25 
z
" id="CMR17-91"/>
      <path d="M 22.796875 20 
C 24.5 19.703125 27.203125 19.109375 27.796875 19 
C 29.09375 18.625 33.59375 17.03125 33.59375 12.234375 
C 33.59375 9.15625 30.796875 1.09375 19.203125 1.09375 
C 17.09375 1.09375 9.59375 1.09375 7.59375 6.8125 
C 11.59375 6.3125 13.59375 9.421875 13.59375 11.640625 
C 13.59375 13.75 12.203125 14.84375 10.203125 14.84375 
C 8 14.84375 5.09375 13.140625 5.09375 8.625 
C 5.09375 2.703125 11.09375 -1 19.09375 -1 
C 34.296875 -1 38.796875 10.171875 38.796875 15.375 
C 38.796875 16.859375 38.796875 19.65625 35.59375 22.84375 
C 33.09375 25.25 30.703125 25.75 25.296875 26.84375 
C 22.59375 27.4375 18.296875 28.34375 18.296875 32.828125 
C 18.296875 34.828125 20.09375 42.015625 29.59375 42.015625 
C 33.796875 42.015625 37.90625 40.453125 38.90625 37 
C 34.5 37 34.296875 33.203125 34.296875 33.109375 
C 34.296875 31 36.203125 30.40625 37.09375 30.40625 
C 38.5 30.40625 41.296875 31.484375 41.296875 35.640625 
C 41.296875 39.765625 37.5 44 29.703125 44 
C 16.59375 44 13.09375 33.75 13.09375 29.671875 
C 13.09375 22.09375 20.5 20.5 22.796875 20 
" id="CMMI12-115"/>
      <path d="M 14.296875 74.484375 
L 1.40625 74.484375 
L 1.40625 71 
L 10.796875 71 
L 10.796875 -21.515625 
L 1.40625 -21.515625 
L 1.40625 -25 
L 14.296875 -25 
z
" id="CMR17-93"/>
     </defs>
     <g style="fill:#262626;" transform="translate(17.0673401259 176.058374601)rotate(-90.0)scale(0.11 -0.11)">
      <use transform="translate(0.0 34.35525288469023)scale(0.9962640099626402)" xlink:href="#CMMI12-118"/>
      <use transform="translate(50.73517339761053 34.35525288469023)scale(0.9962640099626402)" xlink:href="#CMR17-91"/>
      <use transform="translate(76.8017456510741 73.5813544666485)scale(0.6973817666173724)" xlink:href="#CMMI12-109"/>
      <use transform="translate(90.58369675727741 0.0)scale(0.6973817666173724)" xlink:href="#CMMI12-115"/>
      <use transform="translate(137.7260505039695 34.35525288469023)scale(0.9962640099626402)" xlink:href="#CMR17-93"/>
      <path d="M 76.801746 57.269386 
L 136.530537 57.269386 
L 136.530537 61.254336 
L 76.801746 61.254336 
L 76.801746 57.269386 
z
"/>
     </g>
    </g>
   </g>
   <g id="PathCollection_1">
    <defs>
     <path d="M 0 2.236068 
C 0.593012 2.236068 1.161816 2.000462 1.581139 1.581139 
C 2.000462 1.161816 2.236068 0.593012 2.236068 0 
C 2.236068 -0.593012 2.000462 -1.161816 1.581139 -1.581139 
C 1.161816 -2.000462 0.593012 -2.236068 0 -2.236068 
C -0.593012 -2.236068 -1.161816 -2.000462 -1.581139 -1.581139 
C -2.000462 -1.161816 -2.236068 -0.593012 -2.236068 0 
C -2.236068 0.593012 -2.000462 1.161816 -1.581139 1.581139 
C -1.161816 2.000462 -0.593012 2.236068 0 2.236068 
z
" id="mde5f3e3e12" style="stroke:#1a1a1a;stroke-width:0.3;"/>
    </defs>
    <g clip-path="url(#p169dd245e9)">
     <use style="fill:#4c72b0;stroke:#1a1a1a;stroke-width:0.3;" x="120.542240524" xlink:href="#mde5f3e3e12" y="189.087236237"/>
     <use style="fill:#4c72b0;stroke:#1a1a1a;stroke-width:0.3;" x="157.742240524" xlink:href="#mde5f3e3e12" y="189.087236237"/>
     <use style="fill:#4c72b0;stroke:#1a1a1a;stroke-width:0.3;" x="194.942240524" xlink:href="#mde5f3e3e12" y="160.402747739"/>
     <use style="fill:#4c72b0;stroke:#1a1a1a;stroke-width:0.3;" x="232.142240524" xlink:href="#mde5f3e3e12" y="160.402747739"/>
     <use style="fill:#4c72b0;stroke:#1a1a1a;stroke-width:0.3;" x="269.342240524" xlink:href="#mde5f3e3e12" y="160.402747739"/>
     <use style="fill:#4c72b0;stroke:#1a1a1a;stroke-width:0.3;" x="306.542240524" xlink:href="#mde5f3e3e12" y="249.100461637"/>
     <use style="fill:#4c72b0;stroke:#1a1a1a;stroke-width:0.3;" x="343.742240524" xlink:href="#mde5f3e3e12" y="236.770837952"/>
     <use style="fill:#4c72b0;stroke:#1a1a1a;stroke-width:0.3;" x="380.942240524" xlink:href="#mde5f3e3e12" y="236.770837952"/>
     <use style="fill:#4c72b0;stroke:#1a1a1a;stroke-width:0.3;" x="418.142240524" xlink:href="#mde5f3e3e12" y="211.915363149"/>
     <use style="fill:#4c72b0;stroke:#1a1a1a;stroke-width:0.3;" x="455.342240524" xlink:href="#mde5f3e3e12" y="249.100461637"/>
    </g>
   </g>
   <g id="PathCollection_2">
    <defs>
     <path d="M 0 2.236068 
C 0.593012 2.236068 1.161816 2.000462 1.581139 1.581139 
C 2.000462 1.161816 2.236068 0.593012 2.236068 0 
C 2.236068 -0.593012 2.000462 -1.161816 1.581139 -1.581139 
C 1.161816 -2.000462 0.593012 -2.236068 0 -2.236068 
C -0.593012 -2.236068 -1.161816 -2.000462 -1.581139 -1.581139 
C -2.000462 -1.161816 -2.236068 -0.593012 -2.236068 0 
C -2.236068 0.593012 -2.000462 1.161816 -1.581139 1.581139 
C -1.161816 2.000462 -0.593012 2.236068 0 2.236068 
z
" id="m79307e041b" style="stroke:#ff0000;stroke-width:0.3;"/>
    </defs>
    <g clip-path="url(#p169dd245e9)">
     <use style="fill:#ff0000;stroke:#ff0000;stroke-width:0.3;" x="120.542240524" xlink:href="#m79307e041b" y="249.059490902"/>
     <use style="fill:#ff0000;stroke:#ff0000;stroke-width:0.3;" x="157.742240524" xlink:href="#m79307e041b" y="251.107778207"/>
     <use style="fill:#ff0000;stroke:#ff0000;stroke-width:0.3;" x="194.942240524" xlink:href="#m79307e041b" y="251.107778207"/>
     <use style="fill:#ff0000;stroke:#ff0000;stroke-width:0.3;" x="232.142240524" xlink:href="#m79307e041b" y="239.219801442"/>
     <use style="fill:#ff0000;stroke:#ff0000;stroke-width:0.3;" x="269.342240524" xlink:href="#m79307e041b" y="227.371700119"/>
     <use style="fill:#ff0000;stroke:#ff0000;stroke-width:0.3;" x="306.542240524" xlink:href="#m79307e041b" y="202.841709595"/>
     <use style="fill:#ff0000;stroke:#ff0000;stroke-width:0.3;" x="343.742240524" xlink:href="#m79307e041b" y="229.912549"/>
     <use style="fill:#ff0000;stroke:#ff0000;stroke-width:0.3;" x="380.942240524" xlink:href="#m79307e041b" y="216.430492748"/>
     <use style="fill:#ff0000;stroke:#ff0000;stroke-width:0.3;" x="418.142240524" xlink:href="#m79307e041b" y="209.291318563"/>
     <use style="fill:#ff0000;stroke:#ff0000;stroke-width:0.3;" x="455.342240524" xlink:href="#m79307e041b" y="227.515324244"/>
    </g>
   </g>
   <g id="line2d_40">
    <path clip-path="url(#p169dd245e9)" d="M 46.142241 204.304068 
L 492.542241 204.304068 
" style="fill:none;stroke:#0000ff;stroke-linecap:round;stroke-width:1.75;"/>
   </g>
   <g id="line2d_41">
    <path clip-path="url(#p169dd245e9)" d="M 46.142241 230.385794 
L 492.542241 230.385794 
" style="fill:none;stroke:#ff0000;stroke-linecap:round;stroke-width:1.75;"/>
   </g>
   <g id="patch_3">
    <path d="M 492.542241 318.527838 
L 492.542241 11.627838 
" style="fill:none;"/>
   </g>
   <g id="patch_4">
    <path d="M 46.142241 11.627838 
L 492.542241 11.627838 
" style="fill:none;"/>
   </g>
   <g id="patch_5">
    <path d="M 46.142241 318.527838 
L 46.142241 11.627838 
" style="fill:none;"/>
   </g>
   <g id="patch_6">
    <path d="M 46.142241 318.527838 
L 492.542241 318.527838 
" style="fill:none;"/>
   </g>
   <g id="legend_1">
    <g id="line2d_42">
     <path d="M 61.070241 27.322673 
L 81.070241 27.322673 
" style="fill:none;stroke:#0000ff;stroke-linecap:round;stroke-width:1.75;"/>
    </g>
    <g id="line2d_43"/>
    <g id="text_16">
     <!-- Mittelwert von $v_F$ -->
     <defs>
      <path d="M 14.90625 21.296875 
C 14.90625 30.703125 21.796875 37 30.59375 37 
L 30.59375 43.578125 
C 24.203125 43.578125 18.203125 40.390625 14.59375 35.203125 
L 14.59375 43.09375 
L 7.5 43.09375 
L 7.5 0 
L 14.90625 0 
z
" id="CMSS17-114"/>
      <path d="M 16.703125 37 
L 29.703125 37 
L 29.703125 42.765625 
L 16.703125 42.765625 
L 16.703125 55 
L 9.59375 55 
L 9.59375 42.765625 
L 1.703125 42.765625 
L 1.703125 37 
L 9.40625 37 
L 9.40625 11.703125 
C 9.40625 6 10.703125 -1 17.296875 -1 
C 22.296875 -1 26.90625 0.390625 31.296875 2.6875 
L 29.703125 8.5625 
C 27.296875 6.46875 24.40625 5.265625 21.296875 5.265625 
C 16.90625 5.265625 16.703125 10.875 16.703125 13.375 
z
" id="CMSS17-116"/>
      <path d="M 29.703125 32.109375 
L 39.296875 32.109375 
C 46.90625 32.109375 47.5 30.4375 47.5 27.578125 
C 47.5 26.3125 47.296875 24.9375 46.796875 22.765625 
C 46.59375 22.375 46.5 21.890625 46.5 21.6875 
C 46.5 21 46.90625 20.609375 47.59375 20.609375 
C 48.40625 20.609375 48.5 21 48.90625 22.59375 
L 54.703125 45.84375 
C 54.703125 46.234375 54.40625 46.84375 53.703125 46.84375 
C 52.796875 46.84375 52.703125 46.453125 52.296875 44.71875 
C 50.203125 37.125 48.203125 35 39.5 35 
L 30.40625 35 
L 36.90625 61.25 
C 37.796875 64.8125 38 65.109375 42.09375 65.109375 
L 55.5 65.109375 
C 68 65.109375 69.796875 61.359375 69.796875 54.15625 
C 69.796875 53.546875 69.796875 51.3125 69.5 48.671875 
C 69.40625 48.28125 69.203125 46.96875 69.203125 46.546875 
C 69.203125 45.734375 69.703125 45.4375 70.296875 45.4375 
C 71 45.4375 71.40625 45.84375 71.59375 47.65625 
L 73.703125 65.40625 
C 73.703125 65.703125 73.90625 66.703125 73.90625 66.90625 
C 73.90625 68 73 68 71.203125 68 
L 23.796875 68 
C 21.90625 68 20.90625 68 20.90625 66.203125 
C 20.90625 65.109375 21.59375 65.109375 23.296875 65.109375 
C 29.5 65.109375 29.5 64.40625 29.5 63.3125 
C 29.5 62.8125 29.40625 62.40625 29.09375 61.3125 
L 15.59375 7.390625 
C 14.703125 3.890625 14.5 2.890625 7.5 2.890625 
C 5.59375 2.890625 4.59375 2.890625 4.59375 1.09375 
C 4.59375 0 5.5 0 6.09375 0 
C 8 0 10 0 11.90625 0 
L 24.90625 0 
C 27.09375 0 29.5 0 31.703125 0 
C 32.59375 0 33.796875 0 33.796875 1.796875 
C 33.796875 2.890625 33.203125 2.890625 31 2.890625 
C 23.09375 2.890625 22.90625 3.578125 22.90625 5.0625 
C 22.90625 5.5625 23.09375 6.34375 23.296875 7.015625 
z
" id="CMMI12-70"/>
      <path d="M 14.796875 69.078125 
L 7.40625 69.078125 
L 7.40625 0 
L 14.796875 0 
z
" id="CMSS17-108"/>
      <path d="M 62.703125 43 
L 55.09375 43 
L 49.796875 25.109375 
C 48.703125 21.328125 45.59375 10.890625 45.203125 6 
L 45.09375 6 
C 44.90625 9 43.203125 16.140625 40.40625 25.609375 
L 35.296875 43 
L 28.40625 43 
L 23.40625 26 
C 20.90625 17.34375 19 9.984375 18.796875 6 
L 18.703125 6 
C 18.296875 11.875 14.203125 25.609375 13.59375 27.796875 
L 9.09375 43 
L 1.296875 43 
L 14.296875 0 
L 21.90625 0 
C 27.09375 17.125 31.09375 30.359375 31.40625 37.03125 
C 31.59375 33.75 33.296875 26.671875 34.296875 23.1875 
L 40.90625 0 
L 49.703125 0 
z
" id="CMSS17-119"/>
      <path d="M 41.796875 43 
L 34 43 
L 27.296875 24.3125 
C 25.203125 18.203125 22.203125 9.796875 21.703125 5.5 
L 21.59375 5.5 
C 21.40625 7.3125 20.59375 9.90625 20.09375 11.703125 
C 19.5 13.90625 18.703125 16.5 18.09375 18.3125 
L 9.296875 43 
L 1.296875 43 
L 17.09375 0 
L 26 0 
z
" id="CMSS17-118"/>
      <path d="M 15.296875 65.359375 
L 6.90625 65.359375 
L 6.90625 57 
L 15.296875 57 
z
M 14.796875 42.796875 
L 7.40625 42.796875 
L 7.40625 0 
L 14.796875 0 
z
" id="CMSS17-105"/>
      <path d="M 44.203125 21.1875 
C 44.203125 34 34.703125 44 23.5 44 
C 12 44 2.703125 33.703125 2.703125 21.1875 
C 2.703125 8.5 12.296875 -1 23.40625 -1 
C 34.796875 -1 44.203125 8.796875 44.203125 21.1875 
M 23.5 5.265625 
C 16.40625 5.265625 10.296875 11.078125 10.296875 22 
C 10.296875 33.609375 17.40625 37.921875 23.40625 37.921875 
C 29.90625 37.921875 36.59375 33.21875 36.59375 22 
C 36.59375 10.671875 30.09375 5.265625 23.5 5.265625 
" id="CMSS17-111"/>
     </defs>
     <g style="fill:#262626;" transform="translate(89.0702405238 30.8226729549)scale(0.1 -0.1)">
      <use transform="translate(0.0 20.76099818551526)scale(0.9962640099626402)" xlink:href="#CMSS17-77"/>
      <use transform="translate(81.67602995115972 20.76099818551526)scale(0.9962640099626402)" xlink:href="#CMSS17-105"/>
      <use transform="translate(103.85675299657535 20.76099818551526)scale(0.9962640099626402)" xlink:href="#CMSS17-116"/>
      <use transform="translate(137.68831968010588 20.76099818551526)scale(0.9962640099626402)" xlink:href="#CMSS17-116"/>
      <use transform="translate(171.51988636363637 20.76099818551526)scale(0.9962640099626402)" xlink:href="#CMSS17-101"/>
      <use transform="translate(213.15870843224627 20.76099818551526)scale(0.9962640099626402)" xlink:href="#CMSS17-108"/>
      <use transform="translate(235.33943147766192 20.76099818551526)scale(0.9962640099626402)" xlink:href="#CMSS17-119"/>
      <use transform="translate(296.55652265916876 20.76099818551526)scale(0.9962640099626402)" xlink:href="#CMSS17-101"/>
      <use transform="translate(338.19534472777866 20.76099818551526)scale(0.9962640099626402)" xlink:href="#CMSS17-114"/>
      <use transform="translate(370.10511728479145 20.76099818551526)scale(0.9962640099626402)" xlink:href="#CMSS17-116"/>
      <use transform="translate(435.1657967193338 20.76099818551526)scale(0.9962640099626402)" xlink:href="#CMSS17-118"/>
      <use transform="translate(478.16593839994556 20.76099818551526)scale(0.9962640099626402)" xlink:href="#CMSS17-111"/>
      <use transform="translate(525.0095619211162 20.76099818551526)scale(0.9962640099626402)" xlink:href="#CMSS17-110"/>
      <use transform="translate(604.4436178053005 20.76099818551526)scale(0.9962640099626402)" xlink:href="#CMMI12-118"/>
      <use transform="translate(651.6041984890645 0.0)scale(0.6973817666173724)" xlink:href="#CMMI12-70"/>
     </g>
    </g>
    <g id="line2d_44">
     <path d="M 61.070241 41.316686 
L 81.070241 41.316686 
" style="fill:none;stroke:#ff0000;stroke-linecap:round;stroke-width:1.75;"/>
    </g>
    <g id="line2d_45"/>
    <g id="text_17">
     <!-- Mittelwert von $v_D$ -->
     <defs>
      <path d="M 15.703125 7.375 
C 14.796875 3.890625 14.59375 2.890625 7.59375 2.890625 
C 5.703125 2.890625 4.703125 2.890625 4.703125 1.09375 
C 4.703125 0 5.296875 0 7.296875 0 
L 39 0 
C 59.203125 0 78.90625 20.8125 78.90625 43.015625 
C 78.90625 57.359375 70.296875 68 56 68 
L 23.90625 68 
C 22 68 21.09375 68 21.09375 66.109375 
C 21.09375 65.109375 22 65.109375 23.5 65.109375 
C 29.59375 65.109375 29.59375 64.3125 29.59375 63.203125 
C 29.59375 63.015625 29.59375 62.40625 29.203125 60.921875 
z
M 36.796875 61.234375 
C 37.703125 64.90625 38.09375 65.109375 42 65.109375 
L 53 65.109375 
C 62.40625 65.109375 71 60.03125 71 46.296875 
C 71 41.3125 69 24 59.296875 13.046875 
C 56.5 9.765625 48.90625 2.890625 37.40625 2.890625 
L 26 2.890625 
C 24.59375 2.890625 24.40625 2.890625 23.796875 3 
C 22.703125 3.09375 22.59375 3.296875 22.59375 4.09375 
C 22.59375 4.796875 22.796875 5.390625 23 6.265625 
z
" id="CMMI12-68"/>
     </defs>
     <g style="fill:#262626;" transform="translate(89.0702405238 44.816685885)scale(0.1 -0.1)">
      <use transform="translate(0.0 20.76099818551526)scale(0.9962640099626402)" xlink:href="#CMSS17-77"/>
      <use transform="translate(81.67602995115972 20.76099818551526)scale(0.9962640099626402)" xlink:href="#CMSS17-105"/>
      <use transform="translate(103.85675299657535 20.76099818551526)scale(0.9962640099626402)" xlink:href="#CMSS17-116"/>
      <use transform="translate(137.68831968010588 20.76099818551526)scale(0.9962640099626402)" xlink:href="#CMSS17-116"/>
      <use transform="translate(171.51988636363637 20.76099818551526)scale(0.9962640099626402)" xlink:href="#CMSS17-101"/>
      <use transform="translate(213.15870843224627 20.76099818551526)scale(0.9962640099626402)" xlink:href="#CMSS17-108"/>
      <use transform="translate(235.33943147766192 20.76099818551526)scale(0.9962640099626402)" xlink:href="#CMSS17-119"/>
      <use transform="translate(296.55652265916876 20.76099818551526)scale(0.9962640099626402)" xlink:href="#CMSS17-101"/>
      <use transform="translate(338.19534472777866 20.76099818551526)scale(0.9962640099626402)" xlink:href="#CMSS17-114"/>
      <use transform="translate(370.10511728479145 20.76099818551526)scale(0.9962640099626402)" xlink:href="#CMSS17-116"/>
      <use transform="translate(435.1657967193338 20.76099818551526)scale(0.9962640099626402)" xlink:href="#CMSS17-118"/>
      <use transform="translate(478.16593839994556 20.76099818551526)scale(0.9962640099626402)" xlink:href="#CMSS17-111"/>
      <use transform="translate(525.0095619211162 20.76099818551526)scale(0.9962640099626402)" xlink:href="#CMSS17-110"/>
      <use transform="translate(604.4436178053005 20.76099818551526)scale(0.9962640099626402)" xlink:href="#CMMI12-118"/>
      <use transform="translate(651.6041984890645 0.0)scale(0.6973817666173724)" xlink:href="#CMMI12-68"/>
     </g>
    </g>
    <g id="PathCollection_3">
     <path d="M 71.070241 58.364932 
C 71.663253 58.364932 72.232056 58.129326 72.651379 57.710003 
C 73.070702 57.29068 73.306309 56.721876 73.306309 56.128864 
C 73.306309 55.535852 73.070702 54.967048 72.651379 54.547725 
C 72.232056 54.128402 71.663253 53.892796 71.070241 53.892796 
C 70.477228 53.892796 69.908425 54.128402 69.489102 54.547725 
C 69.069779 54.967048 68.834173 55.535852 68.834173 56.128864 
C 68.834173 56.721876 69.069779 57.29068 69.489102 57.710003 
C 69.908425 58.129326 70.477228 58.364932 71.070241 58.364932 
z
" style="fill:#4c72b0;stroke:#1a1a1a;stroke-width:0.3;"/>
     <path d="M 71.070241 58.364932 
C 71.663253 58.364932 72.232056 58.129326 72.651379 57.710003 
C 73.070702 57.29068 73.306309 56.721876 73.306309 56.128864 
C 73.306309 55.535852 73.070702 54.967048 72.651379 54.547725 
C 72.232056 54.128402 71.663253 53.892796 71.070241 53.892796 
C 70.477228 53.892796 69.908425 54.128402 69.489102 54.547725 
C 69.069779 54.967048 68.834173 55.535852 68.834173 56.128864 
C 68.834173 56.721876 69.069779 57.29068 69.489102 57.710003 
C 69.908425 58.129326 70.477228 58.364932 71.070241 58.364932 
z
" style="fill:#4c72b0;stroke:#1a1a1a;stroke-width:0.3;"/>
     <path d="M 71.070241 58.364932 
C 71.663253 58.364932 72.232056 58.129326 72.651379 57.710003 
C 73.070702 57.29068 73.306309 56.721876 73.306309 56.128864 
C 73.306309 55.535852 73.070702 54.967048 72.651379 54.547725 
C 72.232056 54.128402 71.663253 53.892796 71.070241 53.892796 
C 70.477228 53.892796 69.908425 54.128402 69.489102 54.547725 
C 69.069779 54.967048 68.834173 55.535852 68.834173 56.128864 
C 68.834173 56.721876 69.069779 57.29068 69.489102 57.710003 
C 69.908425 58.129326 70.477228 58.364932 71.070241 58.364932 
z
" style="fill:#4c72b0;stroke:#1a1a1a;stroke-width:0.3;"/>
    </g>
    <g id="text_18">
     <!-- $v_{D,k}$ -->
     <defs>
      <path d="M 28.09375 66.515625 
C 28.203125 66.921875 28.40625 67.515625 28.40625 68 
C 28.40625 69 27.40625 69 27.203125 69 
C 27.09375 69 23.5 68.640625 21.703125 68.390625 
C 20 68.390625 18.5 68.09375 16.703125 68.09375 
C 14.296875 67.890625 13.59375 67.796875 13.59375 66 
C 13.59375 65 14.59375 65 15.59375 65 
C 20.703125 65 20.703125 64.09375 20.703125 63.09375 
C 20.703125 62.71875 20.703125 62.515625 20.203125 60.71875 
L 5.90625 3.875 
C 5.5 2.375 5.5 2.1875 5.5 1.578125 
C 5.5 -0.59375 7.203125 -1 8.203125 -1 
C 11 -1 11.59375 1.203125 12.40625 4.296875 
L 17.09375 22.953125 
C 24.296875 22.15625 28.59375 19.15625 28.59375 14.375 
C 28.59375 13.765625 28.59375 13.375 28.296875 11.875 
C 27.90625 10.375 27.90625 9.1875 27.90625 8.6875 
C 27.90625 2.890625 31.703125 -1 36.796875 -1 
C 41.40625 -1 43.796875 3.1875 44.59375 4.59375 
C 46.703125 8.28125 48 13.875 48 14.265625 
C 48 14.765625 47.59375 15.171875 47 15.171875 
C 46.09375 15.171875 46 14.765625 45.59375 13.171875 
C 44.203125 7.984375 42.09375 1 37 1 
C 35 1 33.703125 2 33.703125 5.78125 
C 33.703125 7.6875 34.09375 9.875 34.5 11.375 
C 34.90625 13.171875 34.90625 13.265625 34.90625 14.46875 
C 34.90625 20.359375 29.59375 23.65625 20.40625 24.84375 
C 24 27.046875 27.59375 30.9375 29 32.4375 
C 34.703125 38.8125 38.59375 42.015625 43.203125 42.015625 
C 45.5 42.015625 46.09375 41.40625 46.796875 40.8125 
C 43.09375 40.40625 41.703125 37.8125 41.703125 35.828125 
C 41.703125 33.421875 43.59375 32.625 45 32.625 
C 47.703125 32.625 50.09375 34.921875 50.09375 38.125 
C 50.09375 41.015625 47.796875 44 43.296875 44 
C 37.796875 44 33.296875 40.109375 26.203125 32.125 
C 25.203125 30.9375 21.5 27.140625 17.796875 25.75 
z
" id="CMMI12-107"/>
      <path d="M 19.5 -0.484375 
C 19.5 5.359375 17.59375 9.671875 13.5 9.671875 
C 10.296875 9.671875 8.703125 7.078125 8.703125 4.890625 
C 8.703125 2.6875 10.203125 0 13.59375 0 
C 14.90625 0 16 0.40625 16.90625 1.296875 
C 17.09375 1.5 17.203125 1.5 17.296875 1.5 
C 17.5 1.5 17.5 0.078125 17.5 -0.421875 
C 17.5 -3.75 16.90625 -10.296875 11.09375 -16.875 
C 10 -18.078125 10 -18.28125 10 -18.484375 
C 10 -19 10.5 -19.5 11 -19.5 
C 11.796875 -19.5 19.5 -12.046875 19.5 -0.484375 
" id="CMMI12-59"/>
     </defs>
     <g style="fill:#262626;" transform="translate(89.0702405238 58.7538642152)scale(0.1 -0.1)">
      <use transform="translate(0.0 20.76099818551526)scale(0.9962640099626402)" xlink:href="#CMMI12-118"/>
      <use transform="translate(47.16058068376402 0.0)scale(0.6973817666173724)" xlink:href="#CMMI12-68"/>
      <use transform="translate(105.75308413760898 0.0)scale(0.6973817666173724)" xlink:href="#CMMI12-59"/>
      <use transform="translate(124.7210168897883 0.0)scale(0.6973817666173724)" xlink:href="#CMMI12-107"/>
     </g>
    </g>
    <g id="PathCollection_4">
     <path d="M 71.070241 72.302111 
C 71.663253 72.302111 72.232056 72.066504 72.651379 71.647181 
C 73.070702 71.227858 73.306309 70.659055 73.306309 70.066043 
C 73.306309 69.47303 73.070702 68.904227 72.651379 68.484904 
C 72.232056 68.065581 71.663253 67.829975 71.070241 67.829975 
C 70.477228 67.829975 69.908425 68.065581 69.489102 68.484904 
C 69.069779 68.904227 68.834173 69.47303 68.834173 70.066043 
C 68.834173 70.659055 69.069779 71.227858 69.489102 71.647181 
C 69.908425 72.066504 70.477228 72.302111 71.070241 72.302111 
z
" style="fill:#ff0000;stroke:#ff0000;stroke-width:0.3;"/>
     <path d="M 71.070241 72.302111 
C 71.663253 72.302111 72.232056 72.066504 72.651379 71.647181 
C 73.070702 71.227858 73.306309 70.659055 73.306309 70.066043 
C 73.306309 69.47303 73.070702 68.904227 72.651379 68.484904 
C 72.232056 68.065581 71.663253 67.829975 71.070241 67.829975 
C 70.477228 67.829975 69.908425 68.065581 69.489102 68.484904 
C 69.069779 68.904227 68.834173 69.47303 68.834173 70.066043 
C 68.834173 70.659055 69.069779 71.227858 69.489102 71.647181 
C 69.908425 72.066504 70.477228 72.302111 71.070241 72.302111 
z
" style="fill:#ff0000;stroke:#ff0000;stroke-width:0.3;"/>
     <path d="M 71.070241 72.302111 
C 71.663253 72.302111 72.232056 72.066504 72.651379 71.647181 
C 73.070702 71.227858 73.306309 70.659055 73.306309 70.066043 
C 73.306309 69.47303 73.070702 68.904227 72.651379 68.484904 
C 72.232056 68.065581 71.663253 67.829975 71.070241 67.829975 
C 70.477228 67.829975 69.908425 68.065581 69.489102 68.484904 
C 69.069779 68.904227 68.834173 69.47303 68.834173 70.066043 
C 68.834173 70.659055 69.069779 71.227858 69.489102 71.647181 
C 69.908425 72.066504 70.477228 72.302111 71.070241 72.302111 
z
" style="fill:#ff0000;stroke:#ff0000;stroke-width:0.3;"/>
    </g>
    <g id="text_19">
     <!-- $v_{F}$ -->
     <g style="fill:#262626;" transform="translate(89.0702405238 72.6910425455)scale(0.1 -0.1)">
      <use transform="translate(0.0 20.76099818551526)scale(0.9962640099626402)" xlink:href="#CMMI12-118"/>
      <use transform="translate(47.16058068376402 0.0)scale(0.6973817666173724)" xlink:href="#CMMI12-70"/>
     </g>
    </g>
   </g>
  </g>
 </g>
 <defs>
  <clipPath id="p169dd245e9">
   <rect height="306.9" width="446.4" x="46.1422405238" y="11.6278383552"/>
  </clipPath>
 </defs>
</svg>
